<svg xmlns="http://www.w3.org/2000/svg" width="664.428" height="667.744" viewBox="0 0 664.428 667.744">
  <g id="_1sv" data-name="1sv" transform="translate(0 0)">
    <path id="Path_1" data-name="Path 1" d="M960.312,184.344,299.583,263.82a.4.4,0,0,1-.224-.038.515.515,0,0,1-.183-.154.785.785,0,0,1-.124-.246,1.076,1.076,0,0,1-.045-.314,1.188,1.188,0,0,1,.045-.325,1.036,1.036,0,0,1,.126-.276.738.738,0,0,1,.183-.2.48.48,0,0,1,.224-.092L960.312,181.6a1.752,1.752,0,0,1,.622.032,1.417,1.417,0,0,1,.509.232,1.159,1.159,0,0,1,.343.394,1.107,1.107,0,0,1,.126.515,1.3,1.3,0,0,1-.126.549,1.639,1.639,0,0,1-.343.477,1.931,1.931,0,0,1-.509.355,1.976,1.976,0,0,1-.622.187Z" transform="translate(-299.007 -143.97)" fill="#cacaca"/>
    <path id="Path_1-2" data-name="Path 1" d="M961.5,758.972l-662.071-67.4a.4.4,0,0,1-.21-.086.514.514,0,0,1-.144-.191.786.786,0,0,1-.067-.268,1.074,1.074,0,0,1,.025-.316,1.188,1.188,0,0,1,.116-.307,1.037,1.037,0,0,1,.184-.242.737.737,0,0,1,.222-.153.479.479,0,0,1,.239-.041L962.1,756.3a1.751,1.751,0,0,1,.6.167,1.416,1.416,0,0,1,.446.338,1.159,1.159,0,0,1,.248.46,1.105,1.105,0,0,1,.01.53,1.294,1.294,0,0,1-.244.508,1.642,1.642,0,0,1-.44.39,1.927,1.927,0,0,1-.575.235,1.973,1.973,0,0,1-.648.046Z" transform="translate(-299.008 -91.236)" fill="#cacaca"/>
    <path id="Ellipse_1" data-name="Ellipse 1" d="M312.023,227.491a4.507,4.507,0,0,1,2.535.343,5.6,5.6,0,0,1,2.08,1.661,8.441,8.441,0,0,1,1.407,2.723,11.711,11.711,0,0,1,.515,3.519,13.2,13.2,0,0,1-.515,3.662,11.726,11.726,0,0,1-1.407,3.12,8.474,8.474,0,0,1-2.08,2.249,5.549,5.549,0,0,1-2.535,1.05,4.508,4.508,0,0,1-2.522-.385,5.657,5.657,0,0,1-2.05-1.683,8.5,8.5,0,0,1-1.378-2.708,11.729,11.729,0,0,1-.5-3.476,13.207,13.207,0,0,1,.505-3.619,11.78,11.78,0,0,1,1.377-3.1,8.568,8.568,0,0,1,2.051-2.261A5.616,5.616,0,0,1,312.023,227.491Z" transform="translate(-298.327 -139.214)" fill="#3f3d56"/>
    <path id="Ellipse_2" data-name="Ellipse 2" d="M332.852,224.37a4.806,4.806,0,0,1,2.653.343,5.812,5.812,0,0,1,2.18,1.688,8.534,8.534,0,0,1,1.473,2.781,11.715,11.715,0,0,1,.538,3.6,13.242,13.242,0,0,1-.542,3.751,11.912,11.912,0,0,1-1.469,3.189,8.789,8.789,0,0,1-2.176,2.307,5.9,5.9,0,0,1-2.653,1.088,4.806,4.806,0,0,1-2.639-.387,5.868,5.868,0,0,1-2.146-1.716,8.6,8.6,0,0,1-1.444-2.765,11.738,11.738,0,0,1-.528-3.553,13.238,13.238,0,0,1,.528-3.7,11.958,11.958,0,0,1,1.441-3.176,8.882,8.882,0,0,1,2.146-2.317,5.965,5.965,0,0,1,2.639-1.131Z" transform="translate(-296.197 -139.538)" fill="#3f3d56"/>
    <path id="Ellipse_3" data-name="Ellipse 3" d="M354.656,221.1a5.137,5.137,0,0,1,2.779.339,6.043,6.043,0,0,1,2.28,1.725A8.635,8.635,0,0,1,361.259,226a11.72,11.72,0,0,1,.567,3.678,13.275,13.275,0,0,1-.567,3.836,12.107,12.107,0,0,1-1.545,3.279,9.128,9.128,0,0,1-2.28,2.369,6.276,6.276,0,0,1-2.779,1.121,5.133,5.133,0,0,1-2.764-.387,6.093,6.093,0,0,1-2.248-1.748,8.7,8.7,0,0,1-1.507-2.828,11.739,11.739,0,0,1-.553-3.629,13.285,13.285,0,0,1,.553-3.795,12.156,12.156,0,0,1,1.506-3.251,9.22,9.22,0,0,1,2.248-2.382A6.35,6.35,0,0,1,354.656,221.1Z" transform="translate(-293.969 -139.878)" fill="#3f3d56"/>
    <path id="Path_2" data-name="Path 2" d="M869.959,152.909l-40.288,5.825a3.037,3.037,0,0,1-1.132-.042,2.466,2.466,0,0,1-.923-.429,2.124,2.124,0,0,1-.621-.74,2.166,2.166,0,0,1-.228-.979,2.607,2.607,0,0,1,.228-1.05,3.213,3.213,0,0,1,.621-.922,3.613,3.613,0,0,1,.923-.7,3.534,3.534,0,0,1,1.132-.372l40.287-5.959a3.278,3.278,0,0,1,1.192.034,2.618,2.618,0,0,1,.975.429,2.146,2.146,0,0,1,.9,1.77,2.625,2.625,0,0,1-.241,1.081,3.319,3.319,0,0,1-.657.952,3.834,3.834,0,0,1-2.167,1.1Z" transform="translate(-244.264 -147.505)" fill="#3f3d56"/>
    <path id="Path_3" data-name="Path 3" d="M869.959,162.02,829.671,167.6a3.039,3.039,0,0,1-1.132-.049,2.483,2.483,0,0,1-.923-.429,2.145,2.145,0,0,1-.621-.743,2.177,2.177,0,0,1-.228-.992,2.6,2.6,0,0,1,.228-1.048,3.187,3.187,0,0,1,.621-.917,3.579,3.579,0,0,1,.923-.687,3.519,3.519,0,0,1,1.132-.366l40.287-5.712a3.28,3.28,0,0,1,1.192.042,2.636,2.636,0,0,1,.975.438,2.2,2.2,0,0,1,.658.761,2.181,2.181,0,0,1,.239,1.012,2.616,2.616,0,0,1-.241,1.08,3.284,3.284,0,0,1-.658.944,3.8,3.8,0,0,1-2.167,1.086Z" transform="translate(-244.264 -146.56)" fill="#3f3d56"/>
    <path id="Path_4" data-name="Path 4" d="M869.959,171.132l-40.288,5.321a3.043,3.043,0,0,1-1.132-.056,2.5,2.5,0,0,1-.923-.438,2.148,2.148,0,0,1-.85-1.73,2.59,2.59,0,0,1,.227-1.047,3.161,3.161,0,0,1,.622-.914,3.546,3.546,0,0,1,.923-.687,3.5,3.5,0,0,1,1.132-.359l40.287-5.455a3.282,3.282,0,0,1,1.192.05,2.654,2.654,0,0,1,.975.444,2.222,2.222,0,0,1,.658.766,2.189,2.189,0,0,1,.239,1.013,2.6,2.6,0,0,1-.241,1.078,3.26,3.26,0,0,1-.658.944,3.776,3.776,0,0,1-2.167,1.073Z" transform="translate(-244.264 -145.614)" fill="#3f3d56"/>
    <path id="Rectangle_1" data-name="Rectangle 1" d="M692.359,256.315l194.607-16.483v116l-194.607,2.539Z" transform="translate(-258.206 -137.928)" fill="#f0f0f0"/>
    <path id="Path_5" data-name="Path 5" d="M841.09,393.578l-115.573-2.3a5.2,5.2,0,0,1-3.558-1.5,5.007,5.007,0,0,1-1.075-1.57,4.8,4.8,0,0,1-.394-1.905,4.7,4.7,0,0,1,.394-1.888,4.782,4.782,0,0,1,1.075-1.538,4.952,4.952,0,0,1,1.6-1.025,5.117,5.117,0,0,1,1.961-.358l115.572,1.522a6.491,6.491,0,0,1,2.29.445,6.094,6.094,0,0,1,1.875,1.159,5.425,5.425,0,0,1,1.267,1.7,4.859,4.859,0,0,1,.465,2.069,4.756,4.756,0,0,1-.465,2.054,5.176,5.176,0,0,1-1.267,1.66,5.837,5.837,0,0,1-1.875,1.1,6.382,6.382,0,0,1-2.29.37Z" transform="translate(-255.288 -123.233)" fill="#e4e4e4"/>
    <path id="Path_6" data-name="Path 6" d="M819.6,376.912l-78.242-.657a5.358,5.358,0,0,1-2.008-.405,5.224,5.224,0,0,1-1.637-1.072,4.986,4.986,0,0,1-1.1-1.577,4.774,4.774,0,0,1,0-3.841,4.916,4.916,0,0,1,1.1-1.565,5.149,5.149,0,0,1,1.636-1.055,5.33,5.33,0,0,1,2.009-.385l78.242.134a6.221,6.221,0,0,1,2.232.414,5.842,5.842,0,0,1,1.827,1.123,5.267,5.267,0,0,1,1.236,1.668,4.8,4.8,0,0,1,0,4.071,5.191,5.191,0,0,1-1.235,1.653,5.764,5.764,0,0,1-1.828,1.105,6.188,6.188,0,0,1-2.231.391Z" transform="translate(-253.657 -124.804)" fill="#e4e4e4"/>
    <path id="Rectangle_2" data-name="Rectangle 2" d="M692.359,422.913l194.607,8.873v116L692.359,524.971Z" transform="translate(-258.206 -118.938)" fill="#f0f0f0"/>
    <path id="Path_7" data-name="Path 7" d="M841.09,581.048,725.516,563.692a5.764,5.764,0,0,1-1.961-.678,6.228,6.228,0,0,1-1.6-1.287,5.976,5.976,0,0,1-1.075-1.708,5.17,5.17,0,0,1-.394-1.956,4.346,4.346,0,0,1,.394-1.84,3.978,3.978,0,0,1,1.075-1.395,4.192,4.192,0,0,1,1.6-.816,4.891,4.891,0,0,1,1.961-.1l115.572,16.58a7.129,7.129,0,0,1,2.29.744,7.3,7.3,0,0,1,1.875,1.4,6.509,6.509,0,0,1,1.267,1.867,5.27,5.27,0,0,1,.465,2.13,4.372,4.372,0,0,1-.465,1.994,4.294,4.294,0,0,1-1.267,1.5,4.985,4.985,0,0,1-1.875.853,6.149,6.149,0,0,1-2.29.071Z" transform="translate(-255.288 -105.355)" fill="#e4e4e4"/>
    <path id="Path_8" data-name="Path 8" d="M819.6,561.582l-78.242-10.853a5.9,5.9,0,0,1-2.008-.667,6.28,6.28,0,0,1-1.636-1.287,5.955,5.955,0,0,1-1.1-1.716,5.151,5.151,0,0,1-.4-1.976,4.377,4.377,0,0,1,.4-1.866,4.091,4.091,0,0,1,1.1-1.422,4.362,4.362,0,0,1,1.636-.842,5.076,5.076,0,0,1,2.009-.124L819.6,551.157a6.813,6.813,0,0,1,2.231.7,6.993,6.993,0,0,1,1.828,1.362,6.317,6.317,0,0,1,1.235,1.826,5.214,5.214,0,0,1,.453,2.1,4.4,4.4,0,0,1-.453,1.974,4.307,4.307,0,0,1-1.235,1.492,4.908,4.908,0,0,1-1.828.867,5.932,5.932,0,0,1-2.231.1Z" transform="translate(-253.657 -106.711)" fill="#e4e4e4"/>
    <path id="Path_9" data-name="Path 9" d="M619.241,542.046,313.268,502.871a5.009,5.009,0,0,1-2.3-.949,7.558,7.558,0,0,1-1.867-2.014,10.459,10.459,0,0,1-1.255-2.79,11.9,11.9,0,0,1-.461-3.28V300.61a11.672,11.672,0,0,1,.461-3.261,9.929,9.929,0,0,1,1.255-2.728,7.059,7.059,0,0,1,1.867-1.93,4.787,4.787,0,0,1,2.3-.844L619.24,266.795a9,9,0,0,1,7.15,2.617,9.932,9.932,0,0,1,2.183,3.3,11.132,11.132,0,0,1,.806,4.2V532.391a10.85,10.85,0,0,1-.806,4.16,9.326,9.326,0,0,1-2.183,3.2,8.563,8.563,0,0,1-3.224,1.931A8.918,8.918,0,0,1,619.241,542.046Z" transform="translate(-298.138 -135.135)" fill="#fff"/>
    <path id="Path_10" data-name="Path 10" d="M496.641,387.749a20.269,20.269,0,0,0-2.762-2.933,18.11,18.11,0,0,0-3.14-2.2,16.345,16.345,0,0,0-3.414-1.407,15.2,15.2,0,0,0-3.584-.569,14.831,14.831,0,0,0-3.575.3,15.267,15.267,0,0,0-3.391,1.137,16.43,16.43,0,0,0-3.111,1.92,18.194,18.194,0,0,0-2.737,2.651L388.6,485.043a9.348,9.348,0,0,1-3.551,2.679,7.982,7.982,0,0,1-4.01.563,9.283,9.283,0,0,1-3.983-1.476,12.794,12.794,0,0,1-3.483-3.44L362.666,467.69A17.056,17.056,0,0,0,357.932,463a11.961,11.961,0,0,0-5.331-1.908,10.3,10.3,0,0,0-5.28.893,12.511,12.511,0,0,0-4.6,3.714l-19.731,25.017,275.819,34.823v-4.892Z" transform="translate(-296.519 -123.323)" fill="#b76fff"/>
    <path id="Path_11" data-name="Path 11" d="M619.426,546.088,313.455,506.056a6.726,6.726,0,0,1-3.074-1.28,10.147,10.147,0,0,1-2.5-2.7,14.03,14.03,0,0,1-1.677-3.736,15.944,15.944,0,0,1-.616-4.386V301.1a15.642,15.642,0,0,1,.616-4.358,13.321,13.321,0,0,1,1.677-3.659,9.479,9.479,0,0,1,2.5-2.589,6.424,6.424,0,0,1,3.074-1.139l305.972-25.917a12.065,12.065,0,0,1,9.6,3.491,13.31,13.31,0,0,1,2.939,4.432,14.922,14.922,0,0,1,1.085,5.64V533.157a14.542,14.542,0,0,1-1.085,5.59,12.49,12.49,0,0,1-2.939,4.3,11.476,11.476,0,0,1-4.334,2.581,11.963,11.963,0,0,1-5.268.464ZM313.455,295.032a3.153,3.153,0,0,0-1.516.553,4.65,4.65,0,0,0-1.234,1.272,6.547,6.547,0,0,0-.831,1.8,7.7,7.7,0,0,0-.306,2.153V494.421a7.845,7.845,0,0,0,.305,2.166,6.9,6.9,0,0,0,.831,1.844,4.978,4.978,0,0,0,1.236,1.335,3.3,3.3,0,0,0,1.516.622l305.971,38.307a5.882,5.882,0,0,0,2.587-.243,5.65,5.65,0,0,0,2.121-1.277,6.155,6.155,0,0,0,1.435-2.111,7.161,7.161,0,0,0,.529-2.739V277.518a7.345,7.345,0,0,0-.529-2.763,6.555,6.555,0,0,0-1.435-2.177,5.938,5.938,0,0,0-4.708-1.737Z" transform="translate(-298.325 -135.484)" fill="#cbcbcb"/>
    <path id="Path_360" data-name="Path 360" d="M52.59,557.532h9.2l4.376-35.484H52.589Z" transform="translate(5.455 54.151)" fill="#ffb6b6"/>
    <path id="Path_361" data-name="Path 361" d="M349.472,698.981H367.59a11.546,11.546,0,0,1,11.546,11.545v.376H349.472Z" transform="translate(-293.773 -90.302)" fill="#2f2e41"/>
    <path id="Path_362" data-name="Path 362" d="M129.414,568.532h9.2l4.376-35.484H129.413Z" transform="translate(13.424 55.292)" fill="#ffb6b6"/>
    <path id="Path_363" data-name="Path 363" d="M426.3,709.981h18.118a11.546,11.546,0,0,1,11.546,11.545v.376H426.3Z" transform="translate(-285.804 -89.161)" fill="#2f2e41"/>
    <path id="Path_364" data-name="Path 364" d="M124.146,306.919l6,38.27-57.03.751,7.5-36.768Z" transform="translate(7.585 31.836)" fill="#ffb6b6"/>
    <path id="Path_365" data-name="Path 365" d="M429.864,480.631,448.027,529l2.251,200.428H434.9L398.127,568.391,364.36,713.078H349.353l10.505-164.2s-3.1-35.393,12.756-56.278l3.859-11.149Z" transform="translate(-293.785 -112.951)" fill="#2f2e41"/>
    <path id="Path_366" data-name="Path 366" d="M353.059,524.03a11.257,11.257,0,0,0,7.213-15.683l24.261-79.1-17.845-3.537L344.5,503.244a11.319,11.319,0,0,0,8.56,20.786Z" transform="translate(-294.891 -118.647)" fill="#ffb6b6"/>
    <path id="Path_367" data-name="Path 367" d="M382.056,481.5a5.11,5.11,0,0,1-.992-.1h0a5.128,5.128,0,0,1-4.108-4.646c-.564-7.723-3.359-21.167-8.308-39.959a31.626,31.626,0,0,1,49.939-33.025,31.217,31.217,0,0,1,12.045,21.349c2.459,21.658-2.177,43.4-4.285,51.747a5.139,5.139,0,0,1-4.871,3.872l-39.311.759Z" transform="translate(-291.891 -121.608)" fill="#3f3d56"/>
    <path id="Path_368" data-name="Path 368" d="M487.133,411.232a11.028,11.028,0,0,0-.58,1.637L437.346,429.59l-9.508-8.306-14.411,12.711,15.4,16.341a8.383,8.383,0,0,0,9.914,1.715l52.654-26.9a11,11,0,1,0-4.265-13.923Z" transform="translate(-287.139 -120.819)" fill="#ffb6b6"/>
    <path id="Path_369" data-name="Path 369" d="M437.4,430.623l-17.938,15.667a4.716,4.716,0,0,1-7.07-1l-12.831-19.98a13.1,13.1,0,0,1,19.778-17.172l18.017,15.347a4.716,4.716,0,0,1,.043,7.141Z" transform="translate(-288.91 -120.938)" fill="#3f3d56"/>
    <path id="Path_370" data-name="Path 370" d="M380.021,451.431l-22.167-8.709a4.716,4.716,0,0,1-2.365-6.738L367.316,415.4a13.1,13.1,0,1,1,24.351,9.649L386.34,448.1a4.716,4.716,0,0,1-6.319,3.326Z" transform="translate(-293.214 -120.576)" fill="#3f3d56"/>
    <circle id="Ellipse_118" data-name="Ellipse 118" cx="24.113" cy="24.113" r="24.113" transform="translate(79.127 222.48)" fill="#ffb6b6"/>
    <path id="Path_371" data-name="Path 371" d="M425.39,365.47H387.1V348.781c8.4-3.339,16.627-6.178,21.6,0a16.69,16.69,0,0,1,16.69,16.69Z" transform="translate(-289.87 -127.005)" fill="#2f2e41"/>
    <circle id="Ellipse_119" data-name="Ellipse 119" cx="27.593" cy="27.593" r="27.593" transform="translate(67.432 216.39)" fill="#2f2e41"/>
    <circle id="Ellipse_120" data-name="Ellipse 120" cx="17.66" cy="17.66" r="17.66" transform="translate(57.499 205.353)" fill="#2f2e41"/>
  </g>
</svg>
