<svg xmlns="http://www.w3.org/2000/svg" width="666.932" height="675.619" viewBox="0 0 666.932 675.619">
  <g id="_2sv" data-name="2sv" transform="translate(-0.001 -0.005)">
    <path id="Path_313" data-name="Path 313" d="M677.208,733.368l-9.474-6.035a141.385,141.385,0,0,1-.407-15.931l4.914,1.256-4.851-3.09c.268-6.569.861-10.9.861-10.9s19.155,12.442,31.371,29.307l-2.083,14.263,4.968-9.975a57.207,57.207,0,0,1,3.418,6.324c10.065,21.989,11.043,43.1,2.185,47.157s-24.2-10.483-34.265-32.472a75.308,75.308,0,0,1-5.735-22.225Z" transform="translate(-266.534 -112.188)" fill="#e6e6e6"/>
    <path id="Path_314" data-name="Path 314" d="M657.748,754.593l-11.23-.269a141.414,141.414,0,0,1-8.583-13.427l4.856-1.465-5.75-.138c-3.166-5.762-4.9-9.778-4.9-9.778s22.829.75,42,8.872l5.589,13.287-.9-11.107a57.2,57.2,0,0,1,6.195,3.647c19.982,13.621,31.733,31.189,26.245,39.239s-26.135,3.535-46.117-10.086a75.308,75.308,0,0,1-16.4-16.062Z" transform="translate(-266.534 -112.188)" fill="#e6e6e6"/>
    <path id="Path_315" data-name="Path 315" d="M457.583,662.235h-12.26l-4.6-47.686,16.861.4Z" fill="#a0616a"/>
    <path id="Path_316" data-name="Path 316" d="M727.243,786.307H687.712v-.5A15.387,15.387,0,0,1,703.1,770.419h24.146Z" transform="translate(-266.534 -112.188)" fill="#2f2e41"/>
    <path id="Path_317" data-name="Path 317" d="M602.22,626.845l-8.041,9.254-39.522-26.611,11.868-13.659Z" fill="#a0616a"/>
    <path id="Path_318" data-name="Path 318" d="M879.776,744.467l-25.928,29.84-.377-.328a15.387,15.387,0,0,1-1.523-21.706h0l15.836-18.225Z" transform="translate(-266.534 -112.188)" fill="#2f2e41"/>
    <path id="Path_319" data-name="Path 319" d="M932.276,787.812H597.982a1.191,1.191,0,0,1,0-2.381H932.276a1.191,1.191,0,0,1,0,2.381Z" transform="translate(-266.534 -112.188)" fill="#cacaca"/>
    <path id="Path_320" data-name="Path 320" d="M751.052,662.174l-25.794,95.562h-20l4.393-104.514L721.246,551.4l42.116-2.238Z" transform="translate(-266.534 -112.188)" fill="#2f2e41"/>
    <path id="Path_321" data-name="Path 321" d="M795.811,551.4s2.238,14.547-6.714,30.212-3.357,68.257-3.357,68.257l75.518,75.871s-11.736,20.36-17.331,19.241-93.993-72.733-93.993-72.733L721.245,555.872Z" transform="translate(-266.534 -112.188)" fill="#2f2e41"/>
    <circle id="Ellipse_115" data-name="Ellipse 115" cx="25.736" cy="25.736" r="25.736" transform="translate(461.902 218.344)" fill="#a0616a"/>
    <path id="Path_322" data-name="Path 322" d="M755.258,396.736s30-11.357,30-8,29.576,31.741,22.862,68.667-14.547,54.829-11.19,74.971,1.119,24.617,1.119,24.617-77.922,6.714-79.042-1.119,3.25-19.779,3.25-23.136S753.177,405.375,755.258,396.736Z" transform="translate(-266.534 -112.188)" fill="#575a89"/>
    <path id="Path_323" data-name="Path 323" d="M522.527,394.6l-29.616,48.529h10.07Z" opacity="0.2"/>
    <path id="Path_324" data-name="Path 324" d="M765.82,371.733c-2.083-1.1-4.5-1.329-6.759-2.013-8.068-2.45-13.473-11.57-11.748-19.824a10.115,10.115,0,0,0,.424-3.267c-.3-2.444-2.8-4.022-5.2-4.582s-4.95-.479-7.243-1.379c-3.54-1.391-5.891-5.028-6.4-8.8a18.17,18.17,0,0,1,2.427-10.952l.866,2.493a9.248,9.248,0,0,0,2.831-4.234,5.832,5.832,0,0,1,4.444,3.573c1.391.82,1.591-2.548,3.127-3.044a2.759,2.759,0,0,1,1.917.473c3.1,1.444,6.691.209,10.012-.591a37.688,37.688,0,0,1,17.5-.021c3.822.912,7.6,2.5,10.34,5.32a24.809,24.809,0,0,1,4.837,8.311c2.933,7.382,4.871,15.369,3.9,23.254a32.915,32.915,0,0,1-7.757,17.439c-2.215,2.552-9.44,11.454-13.4,9.936C764.953,381.922,771.686,374.835,765.82,371.733Z" transform="translate(-266.534 -112.188)" fill="#2f2e41"/>
    <rect id="Rectangle_122" data-name="Rectangle 122" width="1.592" height="82.629" transform="translate(454.14 483.355) rotate(-20.877)" opacity="0.2"/>
    <path id="Path_325" data-name="Path 325" d="M413.031,573.646a75.342,75.342,0,1,0-130.2,71.57c.676.852,1.379,1.7,2.1,2.529.054.054.094.108.149.162a73.067,73.067,0,0,0,5.612,5.788c.514.473,1.055.96,1.6,1.42,1.028.92,2.083,1.8,3.178,2.637.433.338.852.676,1.3,1,1.731,1.312,3.53,2.529,5.383,3.692l.081.041c.527.325,1.068.649,1.609.96.973.582,1.974,1.136,2.975,1.663l.636.325c1.461.757,2.948,1.474,4.477,2.137.311.135.649.271.96.406.027.014.04.014.067.027.717.3,1.434.582,2.164.852a71.1,71.1,0,0,0,7.33,2.353,75.379,75.379,0,0,0,19.434,2.543c2.394,0,4.761-.108,7.1-.338a75.08,75.08,0,0,0,15.742-3.178c.013,0,.027-.013.04-.013a73.888,73.888,0,0,0,9.454-3.746c.013-.014.04-.014.054-.027.689-.325,1.352-.676,2.029-1.014l.324-.162c.541-.284,1.082-.568,1.623-.865,1.352-.744,2.678-1.528,3.989-2.367.365-.216.717-.446,1.082-.69.514-.338,1.028-.69,1.528-1.055.662-.46,1.325-.933,1.974-1.42.2-.149.419-.3.622-.46a75.315,75.315,0,0,0,25.588-84.769Z" transform="translate(-266.534 -112.188)" fill="#fff"/>
    <path id="Path_326" data-name="Path 326" d="M380.925,655.278a125.281,125.281,0,0,0-19.989-8.412l-.879-9.724-35.65-3.841-4.531,12.429-12.794,4.8a6.226,6.226,0,0,0-1.3.676h-.014a6.339,6.339,0,0,0-2.7,4.22,6.481,6.481,0,0,0,.1,2.543l.676,2.772c.973.582,1.974,1.136,2.975,1.663l.636.325c1.461.757,2.948,1.474,4.477,2.137.311.135.649.271.96.406.027.014.04.014.067.027.717.3,1.434.582,2.164.852a71.078,71.078,0,0,0,7.33,2.353,75.377,75.377,0,0,0,19.434,2.543c2.394,0,4.76-.108,7.1-.338a75.076,75.076,0,0,0,15.742-3.178c.013,0,.027-.014.04-.014a73.9,73.9,0,0,0,9.454-3.746c.013-.014.04-.014.054-.027.689-.325,1.352-.676,2.029-1.014l.324-.162c.541-.284,1.082-.568,1.623-.865,1.352-.744,2.678-1.528,3.989-2.367.365-.216.717-.446,1.082-.69.514-.338,1.028-.69,1.528-1.055C383.589,656.779,382.277,656.008,380.925,655.278Z" transform="translate(-266.534 -112.188)" fill="#e4e4e4"/>
    <path id="Path_327" data-name="Path 327" d="M314.02,661.269l-2.231-10.076H305.96a1.387,1.387,0,0,0-.176.014h-.014a12.632,12.632,0,0,0-5.869,2.029,13,13,0,0,0-3.137,2.813c1.731,1.312,3.53,2.529,5.383,3.692l.081.041c.527.325,1.068.649,1.609.96.973.582,1.974,1.136,2.975,1.663l.636.325c1.461.757,2.948,1.474,4.477,2.137.311.135.649.271.96.406.027.014.04.014.067.027.717.3,1.434.582,2.164.852Z" transform="translate(-266.534 -112.188)" fill="#e4e4e4"/>
    <circle id="Ellipse_116" data-name="Ellipse 116" cx="25.675" cy="25.675" r="25.675" transform="translate(48.624 463.616)" fill="#fff"/>
    <path id="Path_328" data-name="Path 328" d="M340.8,628.166a26.68,26.68,0,1,1,12.832-50.094h0A26.692,26.692,0,0,1,340.8,628.166Zm.079-51.358a24.668,24.668,0,1,0,11.794,3.02,24.668,24.668,0,0,0-11.794-3.02Z" transform="translate(-266.534 -112.188)" fill="#e4e4e4"/>
    <path id="Path_329" data-name="Path 329" d="M323.6,588.973c2.658,3.145,7.156,4.033,11.3,4.4,8.426.739,20.68-.46,28.914-2.361.588,5.7-1.015,11.839,2.341,16.525a76.716,76.716,0,0,0,2.726-17.391,16.645,16.645,0,0,0-.963-7.448c-1.025-2.316-3.261-4.282-5.836-4.3a14.625,14.625,0,0,1,6.524-2.789l-8.152-4.1,2.094-2.149-14.759-.9,4.275-2.716a92.7,92.7,0,0,0-19.42-.613c-3.008.222-6.152.645-8.589,2.388s-3.845,5.206-2.332,7.765a11.274,11.274,0,0,0-8.592,6.817,18.2,18.2,0,0,0-.652,8.748,62.012,62.012,0,0,0,3.252,13.756Z" transform="translate(-266.534 -112.188)" fill="#e4e4e4"/>
    <path id="Path_330" data-name="Path 330" d="M413.031,573.646a75.342,75.342,0,1,0-130.2,71.57c.676.852,1.379,1.7,2.1,2.529.054.054.094.108.149.162a73.067,73.067,0,0,0,5.612,5.788c.514.473,1.055.96,1.6,1.42,1.028.92,2.083,1.8,3.178,2.637.433.338.852.676,1.3,1,1.731,1.312,3.53,2.529,5.383,3.692l.081.041c.527.325,1.068.649,1.609.96.973.582,1.974,1.136,2.975,1.663l.636.325c1.461.757,2.948,1.474,4.477,2.137.311.135.649.271.96.406.027.014.04.014.067.027.717.3,1.434.582,2.164.852a71.1,71.1,0,0,0,7.33,2.353,75.379,75.379,0,0,0,19.434,2.543c2.394,0,4.761-.108,7.1-.338a75.08,75.08,0,0,0,15.742-3.178c.013,0,.027-.013.04-.013a73.888,73.888,0,0,0,9.454-3.746c.013-.014.04-.014.054-.027.689-.325,1.352-.676,2.029-1.014l.324-.162c.541-.284,1.082-.568,1.623-.865,1.352-.744,2.678-1.528,3.989-2.367.365-.216.717-.446,1.082-.69.514-.338,1.028-.69,1.528-1.055.662-.46,1.325-.933,1.974-1.42.2-.149.419-.3.622-.46a75.315,75.315,0,0,0,25.588-84.769Zm-28.076,81.483c-.446.352-.906.69-1.366,1-.446.338-.892.663-1.352.96-.392.284-.785.555-1.19.812l-.122.081c-.3.2-.6.392-.893.582q-1.684,1.055-3.408,2.029l-.365.2c-.514.284-1.028.555-1.541.825-.068.041-.149.068-.217.108l-.081.041c-.649.338-1.312.663-1.974.974a66.339,66.339,0,0,1-7.885,3.192c-.352.122-.7.243-1.055.352a70.935,70.935,0,0,1-14.9,3.029c-2.218.2-4.463.311-6.722.311a70.258,70.258,0,0,1-18.379-2.407,66.78,66.78,0,0,1-9.02-3.056c-.149-.068-.312-.122-.46-.189s-.311-.122-.46-.189-.311-.135-.473-.216c-1.271-.555-2.529-1.163-3.759-1.8l-.6-.311c-1.5-.784-2.976-1.623-4.409-2.516-.419-.257-.852-.527-1.258-.811-.108-.068-.2-.135-.311-.2-.96-.636-1.92-1.3-2.853-1.988-.635-.473-1.271-.947-1.893-1.434-1.041-.784-2.042-1.623-3.016-2.488-.514-.433-1.014-.906-1.5-1.352a68.715,68.715,0,0,1-5.437-5.626c-.568-.649-1.123-1.3-1.65-1.975a5.154,5.154,0,0,1-.338-.419,71.217,71.217,0,1,1,98.889,12.483Z" transform="translate(-266.534 -112.188)" fill="#e4e4e4"/>
    <path id="Path_331" data-name="Path 331" d="M413.031,368.966a75.342,75.342,0,1,0-130.2,71.57c.676.852,1.379,1.7,2.1,2.529.054.054.094.108.149.162a73.083,73.083,0,0,0,5.612,5.788c.514.473,1.055.96,1.6,1.42,1.028.92,2.083,1.8,3.178,2.637.433.338.852.676,1.3,1,1.731,1.312,3.53,2.529,5.383,3.692l.081.041c.527.325,1.068.649,1.609.96.973.582,1.974,1.136,2.975,1.663l.636.325c1.461.757,2.948,1.474,4.477,2.137.311.135.649.271.96.406.027.014.04.014.067.027.717.3,1.434.582,2.164.852a71.073,71.073,0,0,0,7.33,2.353,75.378,75.378,0,0,0,19.434,2.543c2.394,0,4.76-.108,7.1-.338a75.08,75.08,0,0,0,15.742-3.178c.013,0,.027-.013.04-.013a73.893,73.893,0,0,0,9.454-3.746c.013-.014.04-.014.054-.027.689-.325,1.352-.676,2.029-1.014l.324-.162c.541-.284,1.082-.568,1.623-.865,1.352-.744,2.678-1.528,3.989-2.367.365-.216.717-.446,1.082-.69.514-.338,1.028-.69,1.528-1.055.662-.46,1.325-.933,1.974-1.42.2-.149.419-.3.622-.46a75.315,75.315,0,0,0,25.588-84.769Z" transform="translate(-266.534 -112.188)" fill="#fff"/>
    <path id="Path_332" data-name="Path 332" d="M315.332,411.358l4.376,15.158,55.92-.987-.49-27.774c-.388-21.984-15.925-40.945-37.908-40.557s-35.962,18.973-35.574,40.957l3.194,28.622,9.117-.161Z" transform="translate(-266.534 -112.188)" fill="#e4e4e4"/>
    <circle id="Ellipse_117" data-name="Ellipse 117" cx="25.09" cy="25.09" r="25.09" transform="translate(48.105 259.59)" fill="#fff"/>
    <path id="Path_333" data-name="Path 333" d="M389.67,435.995l-.569,10.553a67.18,67.18,0,0,1-93.112,3.607c-.58-.51-1.148-1.044-1.7-1.589,3.479-3.456,13.082-11.991,23.739-12.78l48.058-3.027S384.289,430.625,389.67,435.995Z" transform="translate(-266.534 -112.188)" fill="#e4e4e4"/>
    <path id="Path_334" data-name="Path 334" d="M367.2,379.251a9.731,9.731,0,0,0-1.728-5.369c-.116-.162-.232-.313-.348-.464a9.777,9.777,0,0,0-7.84-3.746L339.246,370l-18.022.313a9.764,9.764,0,0,0-9.568,9.915l4.291,8.64,2.47,4.964.406-.232c15.6-8.767,21.976-8.883,42.619-.731l.417.162,1.635-4.187,3.711-9.5Z" transform="translate(-266.534 -112.188)" fill="#e4e4e4"/>
    <path id="Path_335" data-name="Path 335" d="M395.363,443.094c-1.45,1.855-2.758,1.822-4.394,3.515-4.128,4.3-10.716,7.987-15.865,11.06l-1.125-20.155,15.69-1.519S393.182,437.864,395.363,443.094Z" transform="translate(-266.534 -112.188)" fill="#e4e4e4"/>
    <path id="Path_336" data-name="Path 336" d="M413.031,368.966a75.342,75.342,0,1,0-130.2,71.57c.676.852,1.379,1.7,2.1,2.529.054.054.094.108.149.162a73.083,73.083,0,0,0,5.612,5.788c.514.473,1.055.96,1.6,1.42,1.028.92,2.083,1.8,3.178,2.637.433.338.852.676,1.3,1,1.731,1.312,3.53,2.529,5.383,3.692l.081.041c.527.325,1.068.649,1.609.96.973.582,1.974,1.136,2.975,1.663l.636.325c1.461.757,2.948,1.474,4.477,2.137.311.135.649.271.96.406.027.014.04.014.067.027.717.3,1.434.582,2.164.852a71.073,71.073,0,0,0,7.33,2.353,75.378,75.378,0,0,0,19.434,2.543c2.394,0,4.76-.108,7.1-.338a75.08,75.08,0,0,0,15.742-3.178c.013,0,.027-.013.04-.013a73.893,73.893,0,0,0,9.454-3.746c.013-.014.04-.014.054-.027.689-.325,1.352-.676,2.029-1.014l.324-.162c.541-.284,1.082-.568,1.623-.865,1.352-.744,2.678-1.528,3.989-2.367.365-.216.717-.446,1.082-.69.514-.338,1.028-.69,1.528-1.055.662-.46,1.325-.933,1.974-1.42.2-.149.419-.3.622-.46a75.315,75.315,0,0,0,25.588-84.769Zm-28.076,81.483c-.446.352-.906.69-1.366,1-.446.338-.892.663-1.352.96-.392.284-.785.555-1.19.811l-.122.081c-.3.2-.6.392-.893.582q-1.684,1.055-3.408,2.029l-.365.2c-.514.284-1.028.555-1.541.825-.068.041-.149.068-.217.108l-.081.041c-.649.338-1.312.663-1.974.974a66.339,66.339,0,0,1-7.885,3.192c-.352.122-.7.243-1.055.352a70.937,70.937,0,0,1-14.9,3.029c-2.218.2-4.463.311-6.722.311A70.259,70.259,0,0,1,323.5,462.54a66.788,66.788,0,0,1-9.02-3.056c-.149-.068-.312-.122-.46-.189s-.311-.122-.46-.189-.311-.135-.473-.216c-1.271-.555-2.529-1.163-3.759-1.8l-.6-.311c-1.5-.784-2.976-1.623-4.409-2.516-.419-.257-.852-.527-1.258-.811-.108-.068-.2-.135-.311-.2-.96-.636-1.92-1.3-2.853-1.988-.635-.473-1.271-.947-1.893-1.434-1.041-.784-2.042-1.623-3.016-2.488-.514-.433-1.014-.906-1.5-1.352a68.72,68.72,0,0,1-5.437-5.626c-.568-.649-1.123-1.3-1.65-1.975a5.159,5.159,0,0,1-.338-.419,71.217,71.217,0,1,1,98.889,12.483Z" transform="translate(-266.534 -112.188)" fill="#e4e4e4"/>
    <path id="Path_337" data-name="Path 337" d="M415.982,163.786A76.859,76.859,0,1,0,283.163,236.8c.69.869,1.407,1.738,2.138,2.58.055.055.1.11.152.166a74.689,74.689,0,0,0,5.726,5.9c.524.483,1.076.98,1.628,1.449,1.049.938,2.125,1.835,3.242,2.69a75.563,75.563,0,0,0,6.815,4.787l.083.041c1.531.952,3.09,1.835,4.677,2.677l.648.331c1.49.773,3.008,1.5,4.567,2.18.317.138.662.276.979.414.028.014.042.014.069.028a74.66,74.66,0,0,0,9.685,3.27,76.891,76.891,0,0,0,19.825,2.594c2.442,0,4.856-.11,7.243-.345a76.581,76.581,0,0,0,16.059-3.242c.014,0,.028-.014.041-.014a75.335,75.335,0,0,0,9.644-3.822c.013-.014.042-.014.055-.028.7-.331,1.38-.69,2.069-1.035l.331-.166c.552-.29,1.1-.579,1.655-.883,1.38-.759,2.732-1.559,4.07-2.414.373-.221.731-.455,1.1-.7,1.214-.8,2.414-1.656,3.573-2.525.207-.152.428-.3.635-.469a76.836,76.836,0,0,0,26.1-86.477Z" transform="translate(-266.534 -112.188)" fill="#fff"/>
    <circle id="Ellipse_188" data-name="Ellipse 188" cx="11.519" cy="11.519" r="11.519" transform="translate(90.708 85.505)" fill="#e4e4e4"/>
    <path id="Path_969" data-name="Path 969" d="M371.97,198.011A11.52,11.52,0,0,1,382.11,215a11.516,11.516,0,1,0-19.133-12.654,11.491,11.491,0,0,1,8.994-4.332Z" transform="translate(-266.534 -112.188)" fill="#e4e4e4"/>
    <circle id="Ellipse_189" data-name="Ellipse 189" cx="33.837" cy="33.837" r="33.837" transform="translate(46.865 29.324)" fill="#e4e4e4"/>
    <path id="Path_970" data-name="Path 970" d="M320.679,154.356a33.832,33.832,0,0,1,46.894-3.548c-.276-.263-.552-.528-.837-.784A33.837,33.837,0,0,0,321.58,200.43l.193.172c.287.255.582.5.876.741a33.832,33.832,0,0,1-1.969-46.987Z" transform="translate(-266.534 -112.188)" fill="#e4e4e4"/>
    <circle id="Ellipse_190" data-name="Ellipse 190" cx="21.793" cy="21.793" r="21.793" transform="translate(58.622 53.126)" fill="#fff"/>
    <path id="Path_338" data-name="Path 338" d="M385.947,243.889V251.2c-1.339.855-2.691,1.656-4.07,2.414-.552.3-1.1.593-1.655.883l-.331.166c-.69.345-1.366.7-2.069,1.035-.013.014-.042.014-.055.028a75.329,75.329,0,0,1-9.644,3.822c-.013,0-.027.014-.041.014a76.583,76.583,0,0,1-16.059,3.242c-2.387.235-4.8.345-7.243.345a76.891,76.891,0,0,1-19.825-2.594,74.662,74.662,0,0,1-9.685-3.27c-.028-.014-.042-.014-.069-.028-.317-.138-.662-.276-.979-.414-1.559-.676-3.077-1.407-4.567-2.18l-.648-.331c-1.587-.842-3.146-1.725-4.677-2.677l-.083-.041a75.57,75.57,0,0,1-6.815-4.787c-1.118-.855-2.193-1.752-3.242-2.69-.552-.469-1.1-.966-1.628-1.449a74.692,74.692,0,0,1-5.726-5.9,27.918,27.918,0,0,1,1.049-4.236l.013-.014a6.193,6.193,0,0,1,.29-.69,5.5,5.5,0,0,1,.262-.579c2.47-4.622,6.94-5.767,12.486-6.015,3.132-.138,6.594.014,10.251-.028,1.931-.014,3.931-.083,5.932-.262,12.624-1.145,10.334-8.6,10.9-12.61.566-3.891,4.07-.524,4.3-.3l.013.014a44.524,44.524,0,0,0,22.9,4.015c1.352-.166,2.7-.262,4.056-.3,3.56-.041,2.787.98,1.56,1.821a15.435,15.435,0,0,1-1.863,1.049s-.566,3.449-1.145,8.609c-.552,4.939,16.845,6.65,20.254,7.726h.013A12.442,12.442,0,0,1,385.947,243.889Z" transform="translate(-266.534 -112.188)" fill="#e4e4e4"/>
    <path id="Path_975" data-name="Path 975" d="M328.31,159.866v21.8h5.047l6.422-6.882-.859,6.882h22.308l-1.38-6.882,2.759,6.882h3.557v-21.8Z" transform="translate(-266.534 -112.188)" fill="#e4e4e4"/>
    <ellipse id="Ellipse_191" data-name="Ellipse 191" cx="1.72" cy="3.154" rx="1.72" ry="3.154" transform="translate(56.615 67.178)" fill="#e4e4e4"/>
    <ellipse id="Ellipse_192" data-name="Ellipse 192" cx="1.72" cy="3.154" rx="1.72" ry="3.154" transform="translate(100.776 67.178)" fill="#e4e4e4"/>
    <path id="Path_339" data-name="Path 339" d="M415.982,163.786A76.859,76.859,0,1,0,283.163,236.8c.69.869,1.407,1.738,2.138,2.58.055.055.1.11.152.166a74.689,74.689,0,0,0,5.726,5.9c.524.483,1.076.98,1.628,1.449,1.049.938,2.125,1.835,3.242,2.69a75.563,75.563,0,0,0,6.815,4.787l.083.041c1.531.952,3.09,1.835,4.677,2.677l.648.331c1.49.773,3.008,1.5,4.567,2.18.317.138.662.276.979.414.028.014.042.014.069.028a74.66,74.66,0,0,0,9.685,3.27,76.891,76.891,0,0,0,19.825,2.594c2.442,0,4.856-.11,7.243-.345a76.581,76.581,0,0,0,16.059-3.242c.014,0,.028-.014.041-.014a75.335,75.335,0,0,0,9.644-3.822c.013-.014.042-.014.055-.028.7-.331,1.38-.69,2.069-1.035l.331-.166c.552-.29,1.1-.579,1.655-.883,1.38-.759,2.732-1.559,4.07-2.414.373-.221.731-.455,1.1-.7,1.214-.8,2.414-1.656,3.573-2.525.207-.152.428-.3.635-.469a76.836,76.836,0,0,0,26.1-86.477ZM387.34,246.91c-.455.359-.924.7-1.393,1.021-.455.345-.911.676-1.38.98-.4.29-.8.566-1.215.828-.345.235-.69.455-1.035.676q-1.717,1.076-3.476,2.069l-.373.207c-.524.29-1.048.566-1.572.842-.069.041-.152.069-.221.11l-.083.041c-.662.345-1.338.676-2.014.993a67.641,67.641,0,0,1-8.043,3.256c-.358.124-.717.248-1.076.359a72.37,72.37,0,0,1-15.2,3.09c-2.263.207-4.553.317-6.857.317a71.676,71.676,0,0,1-18.749-2.456,68.141,68.141,0,0,1-9.2-3.118c-.317-.124-.635-.262-.938-.386-.165-.069-.317-.138-.483-.221-1.3-.566-2.579-1.186-3.835-1.835l-.607-.317c-1.531-.8-3.035-1.656-4.5-2.566-.538-.331-1.076-.676-1.6-1.035-1.656-1.09-3.27-2.263-4.843-3.491-1.062-.8-2.083-1.656-3.077-2.539-.524-.441-1.035-.924-1.531-1.38a70.2,70.2,0,0,1-5.546-5.739c-.579-.662-1.145-1.325-1.683-2.014a5.24,5.24,0,0,1-.345-.428A72.651,72.651,0,1,1,387.34,246.91Z" transform="translate(-266.534 -112.188)" fill="#e4e4e4"/>
    <path id="Path_340" data-name="Path 340" d="M437.371,284.609l-54.109-1.225c-5.412-20.966-2.976-40.929,1.343-59.324l54.109,1.225a118.472,118.472,0,0,0-1.343,59.324Z" transform="translate(-266.534 -112.188)" fill="#b76fff"/>
    <path id="Path_341" data-name="Path 341" d="M127.341,124.983l.03-2.059,28.032,1-.029,2.059Z" fill="#fff"/>
    <path id="Path_342" data-name="Path 342" d="M127.223,133.218l.03-2.059,28.032,1-.03,2.059Z" fill="#fff"/>
    <path id="Path_343" data-name="Path 343" d="M127.105,141.454l.03-2.059,28.032,1-.03,2.059Z" fill="#fff"/>
    <path id="Path_344" data-name="Path 344" d="M126.987,149.69l.029-2.059,28.033,1-.03,2.059Z" fill="#fff"/>
    <path id="Path_345" data-name="Path 345" d="M126.869,157.925l.029-2.059,28.033,1-.03,2.058Z" fill="#fff"/>
    <path id="Path_346" data-name="Path 346" d="M437.371,479.609l-54.109-1.225c-5.412-20.966-2.976-40.929,1.343-59.324l54.109,1.225a118.472,118.472,0,0,0-1.343,59.324Z" transform="translate(-266.534 -112.188)" fill="#b76fff"/>
    <path id="Path_347" data-name="Path 347" d="M127.341,319.983l.03-2.059,28.032,1-.029,2.059Z" fill="#fff"/>
    <path id="Path_348" data-name="Path 348" d="M127.223,328.218l.03-2.059,28.032,1-.03,2.059Z" fill="#fff"/>
    <path id="Path_349" data-name="Path 349" d="M127.105,336.454l.03-2.059,28.032,1-.03,2.059Z" fill="#fff"/>
    <path id="Path_350" data-name="Path 350" d="M126.987,344.69l.029-2.059,28.033,1-.03,2.059Z" fill="#fff"/>
    <path id="Path_351" data-name="Path 351" d="M126.869,352.925l.029-2.059,28.033,1-.03,2.058Z" fill="#fff"/>
    <path id="Path_352" data-name="Path 352" d="M437.371,674.609l-54.109-1.225c-5.412-20.966-2.976-40.929,1.343-59.324l54.109,1.225a118.472,118.472,0,0,0-1.343,59.324Z" transform="translate(-266.534 -112.188)" fill="#b76fff"/>
    <path id="Path_353" data-name="Path 353" d="M127.341,514.983l.03-2.059,28.032,1-.029,2.059Z" fill="#fff"/>
    <path id="Path_354" data-name="Path 354" d="M127.223,523.218l.03-2.059,28.032,1-.03,2.059Z" fill="#fff"/>
    <path id="Path_355" data-name="Path 355" d="M127.105,531.454l.03-2.059,28.032,1-.03,2.059Z" fill="#fff"/>
    <path id="Path_356" data-name="Path 356" d="M126.987,539.69l.029-2.059,28.033,1-.03,2.059Z" fill="#fff"/>
    <path id="Path_357" data-name="Path 357" d="M126.869,547.925l.029-2.059,28.033,1-.03,2.058Z" fill="#fff"/>
    <path id="Path_358" data-name="Path 358" d="M726.075,561.579a10.056,10.056,0,0,1,12.159-9.483l18.534-30.552,7.952,16.781-18.82,26.44a10.11,10.11,0,0,1-19.825-3.186Z" transform="translate(-266.534 -112.188)" fill="#a0616a"/>
    <path id="Path_359" data-name="Path 359" d="M792.454,400.336s26.29,3.01,16.5,51.3-47.833,104.237-47.833,104.237l-25.736-12.308,33.569-66.019-7.833-41.4S756.647,396.979,792.454,400.336Z" transform="translate(-266.534 -112.188)" fill="#575a89"/>
  </g>
</svg>
