<svg xmlns="http://www.w3.org/2000/svg" width="866.517" height="730.518" viewBox="0 0 866.517 730.518">
  <g id="_3_sv" data-name="3 sv" transform="translate(0)">
    <path id="Path_237" data-name="Path 237" d="M885.381,689.632,597.9,558.392,745.928,234.139l287.48,131.241Z" transform="translate(-166.891 -100.134)" fill="#f2f2f2"/>
    <path id="Path_238" data-name="Path 238" d="M921.675,490.307,704.044,390.955a1.7,1.7,0,1,1,1.411-3.091l217.631,99.352a1.7,1.7,0,0,1-1.411,3.091Z" transform="translate(-159.393 -89.183)" fill="#fff"/>
    <path id="Path_239" data-name="Path 239" d="M932.972,465.563,715.341,366.211a1.7,1.7,0,0,1,1.411-3.091l217.631,99.352a1.7,1.7,0,1,1-1.411,3.091Z" transform="translate(-158.588 -90.947)" fill="#fff"/>
    <path id="Path_240" data-name="Path 240" d="M944.268,440.819,726.637,341.466a1.7,1.7,0,0,1,1.411-3.091l217.631,99.352a1.7,1.7,0,1,1-1.411,3.091Z" transform="translate(-157.782 -92.712)" fill="#fff"/>
    <path id="Path_241" data-name="Path 241" d="M955.564,416.075,737.933,316.722a1.7,1.7,0,1,1,1.411-3.091l217.631,99.352a1.7,1.7,0,1,1-1.411,3.091Z" transform="translate(-156.977 -94.476)" fill="#fff"/>
    <path id="Path_242" data-name="Path 242" d="M911.467,512.669,693.836,413.317a1.7,1.7,0,1,1,1.411-3.091l217.631,99.352a1.7,1.7,0,0,1-1.411,3.091Z" transform="translate(-160.121 -87.588)" fill="#fff"/>
    <path id="Path_243" data-name="Path 243" d="M942.323,378.64l-170-77.607a4.248,4.248,0,0,1-2.389-5.12,4.088,4.088,0,0,1,5.571-2.413l169.945,77.583a4.286,4.286,0,0,1,2.422,5.2,4.088,4.088,0,0,1-5.554,2.36Z" transform="translate(-154.636 -95.927)" fill="#fff"/>
    <path id="Path_244" data-name="Path 244" d="M320.271,365.38l287.48-131.241L755.779,558.392,468.3,689.632Z" transform="translate(-186.688 -100.134)" fill="#f2f2f2"/>
    <path id="Path_245" data-name="Path 245" d="M417.728,490.307l217.631-99.352a1.7,1.7,0,0,0-1.411-3.091L416.317,487.216a1.7,1.7,0,0,0,1.411,3.091Z" transform="translate(-179.91 -89.183)" fill="#fff"/>
    <path id="Path_246" data-name="Path 246" d="M406.431,465.563l217.631-99.352a1.7,1.7,0,1,0-1.411-3.091L405.02,462.472a1.7,1.7,0,0,0,1.411,3.091Z" transform="translate(-180.716 -90.947)" fill="#fff"/>
    <path id="Path_247" data-name="Path 247" d="M395.135,440.819l217.631-99.352a1.7,1.7,0,1,0-1.411-3.091L393.724,437.727a1.7,1.7,0,0,0,1.411,3.091Z" transform="translate(-181.521 -92.712)" fill="#fff"/>
    <path id="Path_248" data-name="Path 248" d="M383.839,416.075,601.47,316.723a1.7,1.7,0,1,0-1.411-3.091L382.428,412.983a1.7,1.7,0,0,0,1.411,3.091Z" transform="translate(-182.327 -94.476)" fill="#fff"/>
    <path id="Path_249" data-name="Path 249" d="M427.936,512.669l217.631-99.352a1.7,1.7,0,1,0-1.411-3.091L426.525,509.578a1.7,1.7,0,0,0,1.411,3.091Z" transform="translate(-179.182 -87.588)" fill="#fff"/>
    <path id="Path_250" data-name="Path 250" d="M394.236,378.64l170-77.607a4.248,4.248,0,0,0,2.389-5.12,4.088,4.088,0,0,0-5.571-2.413L391.1,371.084a4.286,4.286,0,0,0-2.422,5.2,4.088,4.088,0,0,0,5.554,2.36Z" transform="translate(-181.823 -95.927)" fill="#fff"/>
    <path id="Path_251" data-name="Path 251" d="M222.419,718.511c1.815-28.116,17.481-56.641,43.559-67.3a129.809,129.809,0,0,0,5.285,88.966c4.746,10.821,11.152,22.362,7.967,33.741-1.982,7.08-7.523,12.736-13.872,16.443s-13.52,5.72-20.6,7.7l-1.343,1.251C230.5,774.266,220.6,746.627,222.419,718.511Z" transform="translate(-193.681 -70.393)" fill="#f0f0f0"/>
    <path id="Path_252" data-name="Path 252" d="M265.014,651.759a110.952,110.952,0,0,0-23.836,63.968,47.778,47.778,0,0,0,1.428,14.9,27.4,27.4,0,0,0,7.556,12.284c3.266,3.187,6.977,6.069,9.412,10a16.78,16.78,0,0,1,1.63,13.626c-1.608,5.671-5.157,10.427-8.79,14.956-4.033,5.029-8.3,10.189-9.762,16.626-.177.78-1.377.46-1.2-.319,2.539-11.2,12.856-18.087,17.365-28.306,2.1-4.768,2.783-10.2.264-14.952-2.2-4.156-6.027-7.131-9.362-10.329a29.242,29.242,0,0,1-7.836-11.736,44.171,44.171,0,0,1-2-14.792,107.645,107.645,0,0,1,5.91-33.12,112.919,112.919,0,0,1,18.342-33.684C264.634,650.253,265.506,651.138,265.014,651.759Z" transform="translate(-192.422 -70.432)" fill="#fff"/>
    <path id="Path_253" data-name="Path 253" d="M241.9,705.525a16.646,16.646,0,0,1-13.682-16.657.621.621,0,0,1,1.242-.012,15.414,15.414,0,0,0,12.758,15.468c.787.138.464,1.338-.319,1.2Z" transform="translate(-193.253 -67.751)" fill="#fff"/>
    <path id="Path_254" data-name="Path 254" d="M247.752,736.782a32.085,32.085,0,0,0,13.208-19.294c.18-.779,1.379-.46,1.2.319a33.373,33.373,0,0,1-13.785,20.05c-.663.449-1.283-.628-.623-1.074Z" transform="translate(-191.879 -65.699)" fill="#fff"/>
    <path id="Path_255" data-name="Path 255" d="M250.465,672.031a9.423,9.423,0,0,0,8.887-.981c.657-.457,1.276.62.623,1.074a10.559,10.559,0,0,1-9.829,1.107.642.642,0,0,1-.441-.759A.624.624,0,0,1,250.465,672.031Z" transform="translate(-191.721 -68.986)" fill="#fff"/>
    <path id="Path_256" data-name="Path 256" d="M348.693,693.377c-.4.3-.8.594-1.207.9a124.087,124.087,0,0,0-15.105,13.306c-.367.368-.733.747-1.088,1.125a130.817,130.817,0,0,0-26.058,40.506,127.046,127.046,0,0,0-5.88,18.385c-2.059,8.657-3.6,18.208-8.263,25.466a21.784,21.784,0,0,1-1.571,2.193l-45.854,2.72c-.107-.046-.215-.082-.322-.128l-1.826.192c.054-.329.118-.668.172-1,.031-.191.072-.382.1-.573.024-.127.048-.255.062-.371.008-.042.016-.085.024-.117.014-.116.04-.223.054-.329q.524-2.85,1.089-5.7c0-.01,0-.01.009-.022,2.91-14.482,7.055-28.848,13.248-42.129.186-.4.372-.809.579-1.21a121.235,121.235,0,0,1,9.892-17.132,107.178,107.178,0,0,1,6.641-8.572,89.117,89.117,0,0,1,21.273-18c15.931-9.659,34.773-14.115,52.664-9.854C347.786,693.148,348.234,693.257,348.693,693.377Z" transform="translate(-192.304 -67.526)" fill="#f0f0f0"/>
    <path id="Path_257" data-name="Path 257" d="M348.615,693.879A110.954,110.954,0,0,0,291.07,730.6a47.778,47.778,0,0,0-7.831,12.759,27.4,27.4,0,0,0-1.363,14.358c.689,4.512,1.916,9.047,1.5,13.647a16.779,16.779,0,0,1-6.9,11.86c-4.7,3.56-10.4,5.22-16.023,6.65-6.249,1.587-12.764,3.137-17.8,7.4-.611.516-1.376-.462-.766-.977,8.77-7.413,21.154-6.7,30.907-12.146,4.551-2.541,8.363-6.468,9.213-11.779.743-4.644-.519-9.322-1.256-13.884a29.242,29.242,0,0,1,.809-14.089,44.171,44.171,0,0,1,7.312-13.013,107.647,107.647,0,0,1,24.66-22.886,112.921,112.921,0,0,1,34.925-15.852c.771-.2.935,1.031.168,1.23Z" transform="translate(-192.294 -67.44)" fill="#fff"/>
    <path id="Path_258" data-name="Path 258" d="M292.218,723.856a16.646,16.646,0,0,1-.9-21.537c.494-.628,1.493.11,1,.739a15.414,15.414,0,0,0,.874,20.032c.545.584-.435,1.347-.977.766Z" transform="translate(-189.004 -66.766)" fill="#fff"/>
    <path id="Path_259" data-name="Path 259" d="M278.636,751.8a32.084,32.084,0,0,0,22.163-7.453c.613-.514,1.378.464.766.977a33.372,33.372,0,0,1-23.078,7.709c-.8-.041-.646-1.274.149-1.233Z" transform="translate(-189.705 -63.762)" fill="#fff"/>
    <path id="Path_260" data-name="Path 260" d="M319.041,702.215a9.423,9.423,0,0,0,7.687,4.567c.8.031.645,1.264-.149,1.233a10.559,10.559,0,0,1-8.515-5.034.642.642,0,0,1,.105-.872.624.624,0,0,1,.872.105Z" transform="translate(-186.854 -66.773)" fill="#fff"/>
    <path id="Path_261" data-name="Path 261" d="M890.61,694.131H460.741V209.276H890.61Z" transform="translate(-176.672 -101.907)" fill="#fff"/>
    <path id="Path_262" data-name="Path 262" d="M890.61,694.131H460.741V209.276H890.61Zm-427.558-2.311H888.3V211.586H463.052Z" transform="translate(-176.672 -101.907)" fill="#cacaca"/>
    <path id="Path_263" data-name="Path 263" d="M835.064,421.493H509.642a2.311,2.311,0,0,1,0-4.622H835.064a2.311,2.311,0,1,1,0,4.622Z" transform="translate(-173.349 -87.103)" fill="#e4e4e4"/>
    <path id="Path_264" data-name="Path 264" d="M835.064,384.493H509.642a2.311,2.311,0,0,1,0-4.622H835.064a2.311,2.311,0,1,1,0,4.622Z" transform="translate(-173.349 -89.742)" fill="#e4e4e4"/>
    <path id="Path_265" data-name="Path 265" d="M835.064,347.493H509.642a2.311,2.311,0,0,1,0-4.622H835.064a2.311,2.311,0,1,1,0,4.622Z" transform="translate(-173.349 -92.38)" fill="#e4e4e4"/>
    <path id="Path_266" data-name="Path 266" d="M835.064,310.493H509.642a2.311,2.311,0,0,1,0-4.622H835.064a2.311,2.311,0,1,1,0,4.622Z" transform="translate(-173.349 -95.019)" fill="#e4e4e4"/>
    <path id="Path_267" data-name="Path 267" d="M835.064,454.931H509.642a2.311,2.311,0,0,1,0-4.622H835.064a2.311,2.311,0,1,1,0,4.622Z" transform="translate(-173.349 -84.719)" fill="#e4e4e4"/>
    <path id="Path_268" data-name="Path 268" d="M835.064,620.931H509.642a2.311,2.311,0,0,1,0-4.622H835.064a2.311,2.311,0,1,1,0,4.622Z" transform="translate(-173.349 -72.882)" fill="#e4e4e4"/>
    <path id="Path_269" data-name="Path 269" d="M752.052,593.2H582.537a4.278,4.278,0,0,1-4.273-4.273V489.212a4.278,4.278,0,0,1,4.273-4.273H752.052a4.278,4.278,0,0,1,4.273,4.273v99.714A4.278,4.278,0,0,1,752.052,593.2Z" transform="translate(-168.291 -82.25)" fill="#fff"/>
    <path id="Path_270" data-name="Path 270" d="M694.619,533.019a9.429,9.429,0,0,0-13.547-.242l-47.706,47.706a6.736,6.736,0,0,1-9.5.014l-7.065-7.051a9.406,9.406,0,0,0-13.305,0l-13.673,13.69h153.3v-1.952Z" transform="translate(-167.467 -79.035)" fill="#b76fff"/>
    <path id="Path_271" data-name="Path 271" d="M752.052,593.2H582.537a4.278,4.278,0,0,1-4.273-4.273V489.212a4.278,4.278,0,0,1,4.273-4.273H752.052a4.278,4.278,0,0,1,4.273,4.273v99.714A4.278,4.278,0,0,1,752.052,593.2ZM582.537,487.788a1.426,1.426,0,0,0-1.424,1.425v99.714a1.426,1.426,0,0,0,1.424,1.424H752.052a1.426,1.426,0,0,0,1.424-1.424V489.212a1.426,1.426,0,0,0-1.424-1.424Z" transform="translate(-168.291 -82.25)" fill="#3f3d56"/>
    <path id="Path_272" data-name="Path 272" d="M361.133,573.824a10.773,10.773,0,0,0-9.29-13.659l-8.882-37.239-13.614,14.506,10.522,33.138a10.831,10.831,0,0,0,21.264,3.253Z" transform="translate(-186.041 -79.541)" fill="#ffb6b6"/>
    <path id="Path_273" data-name="Path 273" d="M338.577,566.851a4.826,4.826,0,0,1-2.9-2.653l-18.833-46.064a49.68,49.68,0,0,1-1.766-34.927l12.067-37.8a15.53,15.53,0,1,1,30.931,2.83l-16,60.867,10.719,47.8a4.837,4.837,0,0,1-2.357,5.013l-7.945,4.54a4.828,4.828,0,0,1-2.81.617,4.778,4.778,0,0,1-1.1-.228Z" transform="translate(-187.226 -86.075)" fill="#e4e4e4"/>
    <path id="Path_274" data-name="Path 274" d="M203.8,672.454h13.133l6.249-50.66H203.8Z" transform="translate(14.532 44.339)" fill="#ffb6b6"/>
    <path id="Path_275" data-name="Path 275" d="M396.251,774.133h25.867A16.484,16.484,0,0,1,438.6,790.614v.537l-42.35,0Z" transform="translate(-181.27 -61.628)" fill="#2f2e41"/>
    <path id="Path_276" data-name="Path 276" d="M134.8,672.454h13.133l6.249-50.66H134.8Z" transform="translate(9.612 44.339)" fill="#ffb6b6"/>
    <path id="Path_277" data-name="Path 277" d="M327.251,774.133h25.867A16.484,16.484,0,0,1,369.6,790.614v.537l-42.35,0Z" transform="translate(-186.19 -61.628)" fill="#2f2e41"/>
    <path id="Path_278" data-name="Path 278" d="M412.751,540.069l-77.024-6.777s-7.61,48.558-6.538,67.841,2.143,49.28,2.143,49.28l-8.57,130.7,33.211-4.285,4.285-108.2L374.184,609.7l16.07,74.992,10.713,96.418,28.925-3.214L420.25,661.127S428.819,556.139,412.751,540.069Z" transform="translate(-186.511 -78.802)" fill="#2f2e41"/>
    <circle id="Ellipse_107" data-name="Ellipse 107" cx="21.426" cy="21.426" r="21.426" transform="translate(173.746 275.931)" fill="#ffb8b8"/>
    <path id="Path_279" data-name="Path 279" d="M404.476,432.541l-15.3-12.182s-16.572-12.787-26.293-3.333l-4.365,6.24s-24.745,9.275-24.745,21.059l1.177,64.645s-8.57,33.211,4.285,35.353l74.886,6.061-.966-61.769Z" transform="translate(-185.841 -87.341)" fill="#e4e4e4"/>
    <path id="Path_280" data-name="Path 280" d="M363.2,407.239s-22.5-16.07-10.713-35.353c8.175-13.378,25.116-12.319,34.725-10.416a16.235,16.235,0,0,1,11.876,9.344c1.607,3.75,1.607,7.5-4.821,7.5-12.856,0-6.428,9.642-6.428,9.642s-8.57,2.143-6.428,9.642S363.2,407.239,363.2,407.239Z" transform="translate(-184.634 -91.134)" fill="#2f2e41"/>
    <path id="Path_281" data-name="Path 281" d="M474.872,538.967a10.773,10.773,0,0,0-14.939-7.05l-26.56-27.571-4.362,19.41L454.9,546.962a10.831,10.831,0,0,0,19.971-7.995Z" transform="translate(-178.934 -80.866)" fill="#ffb6b6"/>
    <path id="Path_282" data-name="Path 282" d="M451.184,545.107a4.826,4.826,0,0,1-3.846-.812l-39.613-30.121a49.68,49.68,0,0,1-19.256-29.193l-8.8-38.691a15.53,15.53,0,1,1,28.084-13.267l17.119,60.563,33.507,35.74a4.837,4.837,0,0,1,.514,5.516l-4.54,7.945a4.827,4.827,0,0,1-2.108,1.958A4.772,4.772,0,0,1,451.184,545.107Z" transform="translate(-182.559 -86.586)" fill="#e4e4e4"/>
    <path id="Path_283" data-name="Path 283" d="M995.48,139.35H376.74a.9.9,0,0,1,0-1.8H995.48a.9.9,0,1,1,0,1.8Z" transform="translate(-182.726 -107.021)" fill="#cacaca"/>
    <circle id="Ellipse_108" data-name="Ellipse 108" cx="9.878" cy="9.878" r="9.878" transform="translate(204.348 0)" fill="#3f3d56"/>
    <circle id="Ellipse_109" data-name="Ellipse 109" cx="9.878" cy="9.878" r="9.878" transform="translate(238.473 0)" fill="#3f3d56"/>
    <circle id="Ellipse_110" data-name="Ellipse 110" cx="9.878" cy="9.878" r="9.878" transform="translate(272.598 0)" fill="#3f3d56"/>
    <path id="Path_284" data-name="Path 284" d="M936.883,114.932H912.638a1.8,1.8,0,1,1,0-3.592h24.247a1.8,1.8,0,0,1,0,3.592Z" transform="translate(-144.576 -108.89)" fill="#3f3d56"/>
    <path id="Path_285" data-name="Path 285" d="M936.883,121.219H912.638a1.8,1.8,0,1,1,0-3.592h24.247a1.8,1.8,0,0,1,0,3.592Z" transform="translate(-144.576 -108.442)" fill="#3f3d56"/>
    <path id="Path_286" data-name="Path 286" d="M936.883,127.506H912.638a1.8,1.8,0,1,1,0-3.592h24.247a1.8,1.8,0,0,1,0,3.592Z" transform="translate(-144.576 -107.993)" fill="#3f3d56"/>
    <path id="Path_287" data-name="Path 287" d="M604.82,790.419H196.651a1.071,1.071,0,0,1,0-2.143H604.82a1.071,1.071,0,0,1,0,2.143Z" transform="translate(-195.58 -60.619)" fill="#cacaca"/>
    <path id="Path_288" data-name="Path 288" d="M797.466,271.759H543.27a5.778,5.778,0,0,1-5.848-4.986,5.561,5.561,0,0,1,5.531-6.133H797.072A5.83,5.83,0,0,1,803,265.7a5.561,5.561,0,0,1-5.538,6.058Z" transform="translate(-171.206 -98.244)" fill="#b76fff"/>
  </g>
</svg>
