<svg id="app_sv" data-name="app sv" xmlns="http://www.w3.org/2000/svg" width="765.6" height="667.744" viewBox="0 0 765.6 667.744">
  <path id="Path_372" data-name="Path 372" d="M930.662,783.113v-72.34S958.854,762.059,930.662,783.113Z" transform="translate(-217.2 -116.128)" fill="#f1f1f1"/>
  <path id="Path_373" data-name="Path 373" d="M932.4,783.1l-53.29-48.921S935.959,748.094,932.4,783.1Z" transform="translate(-217.2 -116.128)" fill="#f1f1f1"/>
  <path id="Path_374" data-name="Path 374" d="M487.417,244.909h-2.978v-81.57a47.211,47.211,0,0,0-47.211-47.211H264.411A47.211,47.211,0,0,0,217.2,163.339v447.5a47.211,47.211,0,0,0,47.211,47.211H437.229A47.211,47.211,0,0,0,484.44,610.84V302.972h2.978Z" transform="translate(-217.2 -116.128)" fill="#3f3d56"/>
  <path id="Path_375" data-name="Path 375" d="M439.134,128.411H416.575a16.75,16.75,0,0,1-15.508,23.076h-99a16.75,16.75,0,0,1-15.508-23.076H265.483a35.256,35.256,0,0,0-35.256,35.256V610.512a35.256,35.256,0,0,0,35.257,35.257h173.65a35.256,35.256,0,0,0,35.257-35.257h0V163.667a35.256,35.256,0,0,0-35.256-35.256Z" transform="translate(-217.2 -116.128)" fill="#fff"/>
  <circle id="Ellipse_44" data-name="Ellipse 44" cx="84.446" cy="84.446" r="84.446" transform="translate(50.662 176.788)" fill="#b76fff"/>
  <path id="Path_376" data-name="Path 376" d="M377.332,383.132l-21,21.63a4.774,4.774,0,0,1-3.5,1.41h-.07a4.814,4.814,0,0,1-3.51-1.41l-20.99-21.63c-.07-.08-.15-.15-.22-.22a4.641,4.641,0,0,1,.22-6.55,5.169,5.169,0,0,1,7.08,0l12.44,13v-33.52a5.02,5.02,0,0,1,10.03,0v33.52l12.43-13a5.181,5.181,0,0,1,7.09,0l.22.22a4.65,4.65,0,0,1-.22,6.55Z" transform="translate(-217.2 -116.128)" fill="#fff"/>
  <path id="Path_377" data-name="Path 377" d="M590.258,653.281H578l-5.832-47.288H590.26Z" fill="#9f616a"/>
  <path id="Path_378" data-name="Path 378" d="M810.585,781.293H771.054v-.5a15.387,15.387,0,0,1,15.385-15.386h24.146Z" transform="translate(-217.2 -116.128)" fill="#2f2e41"/>
  <path id="Path_379" data-name="Path 379" d="M497.121,652.877l-11.844-3.167,6.58-47.19,17.48,4.674Z" fill="#9f616a"/>
  <path id="Path_380" data-name="Path 380" d="M714.272,781.293l-38.189-10.212.129-.483a15.387,15.387,0,0,1,18.839-10.89h0l23.325,6.237Z" transform="translate(-217.2 -116.128)" fill="#2f2e41"/>
  <path id="Path_381" data-name="Path 381" d="M597.311,388.269,607.58,400.2,594.3,642.642H565.931l-14.3-186.551L507.282,647.645l-29.492-7.233,26.816-243.3Z" fill="#2f2e41"/>
  <path id="Path_382" data-name="Path 382" d="M728.662,347.872,756.908,333.7l43.437.764,37.38,19.127L816.457,459.809l9.187,55.38h0a226.532,226.532,0,0,1-108.335.892l-.284-.068s21.114-74.917,12.126-97.779Z" transform="translate(-217.2 -116.128)" fill="#cbcbcb"/>
  <path id="Path_383" data-name="Path 383" d="M810.378,291.264a32,32,0,1,0,0,.237Z" transform="translate(-217.2 -116.128)" fill="#9f616a"/>
  <path id="Path_384" data-name="Path 384" d="M764.045,272.978a9.079,9.079,0,0,1,6.117-2.468c3.419-.111,8.542,1.1,10.722,3.883,1.752,2.234,1.836,5.307,1.843,8.147l.018,7.836c.005,2.318.034,4.735,1.087,6.8s3.471,3.634,5.68,2.93c2.62-.835,3.772-4.318,6.45-4.944,2.011-.47,4.077,1,4.956,2.868a12.439,12.439,0,0,1,.716,6.086c-.254,4.1-6.138,5.731-6.971,9.756-.482,2.328-2.169,6.973,0,6,10-1,14.389-6.841,18.966-12.339l10.323-12.4a12.122,12.122,0,0,0,2.659-4.3,11.955,11.955,0,0,0,.273-3.431q-.084-4.623-.251-9.244c-.1-2.692-.774-6.088-3.41-6.641-1.371-.288-3.185.214-3.91-.985a2.72,2.72,0,0,1-.124-1.911c.582-3.076,1.564-6.294.551-9.257-1.527-4.468-6.785-6.3-11.431-7.145s-9.862-1.568-12.778-5.282a40.481,40.481,0,0,0-2.536-3.565,9.955,9.955,0,0,0-4.755-2.4,26.279,26.279,0,0,0-17.28,1.534c-2.247,1.026-4.5,2.407-6.97,2.25-2.561-.162-4.748-1.965-7.276-2.4-4.084-.708-7.988,2.351-10,5.975-2.494,4.49-2.722,10.638.8,14.375,1.757,1.864,4.38,3.145,5.109,5.6.3,1,.228,2.076.491,3.086a5.57,5.57,0,0,0,4.489,3.884C760.1,275.679,762.21,274.535,764.045,272.978Z" transform="translate(-217.2 -116.128)" fill="#2f2e41"/>
  <path id="Path_385" data-name="Path 385" d="M724.764,425.313a11.462,11.462,0,0,0,16.65,5.627l57.353,30.318,1.857-13.971L744.9,414.424a11.524,11.524,0,0,0-20.131,10.889Z" transform="translate(-217.2 -116.128)" fill="#9f616a"/>
  <path id="Path_386" data-name="Path 386" d="M801.193,427.728a11.462,11.462,0,0,1-17.478,1.848l-62.6,17.034.545-17.738L783.931,412.7a11.524,11.524,0,0,1,17.261,15.03Z" transform="translate(-217.2 -116.128)" fill="#9f616a"/>
  <path id="Path_387" data-name="Path 387" d="M825.519,354.36l12.205-.765s14.29,18.855,6.364,39.316c0,0,1.373,73.5-30.276,70.48s-41.65-3.019-41.65-3.019l9.5-26.5,21.253-6.562s-6.55-28.894,5.849-40.916Z" transform="translate(-217.2 -116.128)" fill="#cbcbcb"/>
  <path id="Path_388" data-name="Path 388" d="M737.387,353.715l-1.725-8.843s-25.44-.6-30.47,37.951c0,0-22.877,57.692-.454,65.121s47.089,0,47.089,0L749.969,422.5,725.3,417.467s12.745-16.489,5.805-30.792Z" transform="translate(-217.2 -116.128)" fill="#cbcbcb"/>
  <path id="Path_389" data-name="Path 389" d="M981.8,783.872h-381a1,1,0,0,1,0-2h381a1,1,0,0,1,0,2Z" transform="translate(-217.2 -116.128)" fill="#cbcbcb"/>
</svg>
