<svg xmlns="http://www.w3.org/2000/svg" width="905.676" height="730.518" viewBox="0 0 905.676 730.518">
  <g id="post_sv" data-name="post sv" transform="translate(0 -0.001)">
    <path id="Path_289" data-name="Path 289" d="M1041.52,733.238c-3.318-26.678-19.851-52.964-45.294-61.646a123.863,123.863,0,0,1-.006,85.041c-3.909,10.575-9.359,21.93-5.682,32.589,2.288,6.632,7.886,11.706,14.143,14.878s13.2,4.685,20.059,6.167l1.35,1.116C1036.97,786.8,1044.84,759.916,1041.52,733.238Z" transform="translate(-147.162 -84.741)" fill="#f0f0f0"/>
    <path id="Path_290" data-name="Path 290" d="M995.973,672.1a105.871,105.871,0,0,1,26.319,59.584,45.59,45.59,0,0,1-.519,14.275,26.149,26.149,0,0,1-6.5,12.128c-2.931,3.221-6.3,6.175-8.4,10.052a16.011,16.011,0,0,0-.782,13.071c1.852,5.311,5.5,9.64,9.218,13.749,4.126,4.563,8.484,9.236,10.238,15.285.213.733,1.337.36,1.125-.371-3.052-10.524-13.268-16.5-18.14-25.981-2.273-4.423-3.228-9.558-1.1-14.227,1.864-4.083,5.338-7.133,8.334-10.368a27.9,27.9,0,0,0,6.8-11.622,42.145,42.145,0,0,0,1.063-14.2,102.713,102.713,0,0,0-7.5-31.214,107.747,107.747,0,0,0-19.374-31.048c-.507-.567-1.287.325-.784.889Z" transform="translate(-147.162 -84.741)" fill="#fff"/>
    <path id="Path_291" data-name="Path 291" d="M1021.97,724.51a15.884,15.884,0,0,0,12.091-16.639.593.593,0,0,0-1.184.059,14.708,14.708,0,0,1-11.279,15.455c-.742.176-.366,1.3.372,1.125Z" transform="translate(-147.162 -84.741)" fill="#fff"/>
    <path id="Path_292" data-name="Path 292" d="M1016.97,756.646a30.615,30.615,0,0,1-13.671-17.632c-.215-.732-1.34-.36-1.125.372a31.844,31.844,0,0,0,14.264,18.319c.657.39,1.186-.671.533-1.058Z" transform="translate(-147.162 -84.741)" fill="#fff"/>
    <path id="Path_293" data-name="Path 293" d="M1010.39,692a8.991,8.991,0,0,1-8.52-.432c-.652-.4-1.18.663-.533,1.058a10.075,10.075,0,0,0,9.425.5.612.612,0,0,0,.377-.748.6.6,0,0,0-.748-.377Z" transform="translate(-147.162 -84.741)" fill="#fff"/>
    <path id="Path_294" data-name="Path 294" d="M918.672,719.243c.4.26.8.52,1.2.79a118.4,118.4,0,0,1,15.14,11.82c.37.33.74.67,1.1,1.01a124.829,124.829,0,0,1,27.11,37.11,121.219,121.219,0,0,1,6.64,17.18c2.45,8.13,4.46,17.14,9.31,23.79a20.809,20.809,0,0,0,1.62,2h43.83c.1-.05.2-.09.3-.14l1.75.08c-.07-.31-.15-.63-.22-.94-.04-.18-.09-.36-.13-.54-.03-.12-.06-.24-.08-.35-.01-.04-.02-.08-.03-.11-.02-.11-.05-.21-.07-.31q-.66-2.685-1.36-5.37c0-.01,0-.01-.01-.02-3.59-13.63-8.35-27.08-15-39.38-.2-.37-.4-.75-.62-1.12a115.676,115.676,0,0,0-10.39-15.76,102.227,102.227,0,0,0-6.81-7.79,85.039,85.039,0,0,0-21.28-15.94c-15.72-8.3-33.92-11.48-50.72-6.41C919.522,718.973,919.1,719.1,918.672,719.243Z" transform="translate(-147.162 -84.741)" fill="#f0f0f0"/>
    <path id="Path_295" data-name="Path 295" d="M918.77,719.8a105.87,105.87,0,0,1,56.888,31.728,45.591,45.591,0,0,1,8.18,11.71,26.148,26.148,0,0,1,2.109,13.6c-.4,4.336-1.314,8.725-.655,13.084a16.011,16.011,0,0,0,7.245,10.907c4.676,3.126,10.2,4.385,15.638,5.429,6.042,1.159,12.335,2.267,17.377,6.04.611.457,1.285-.517.675-.974-8.773-6.566-20.529-5.188-30.126-9.823-4.478-2.163-8.332-5.688-9.441-10.7-.97-4.382-.033-8.909.412-13.3a27.9,27.9,0,0,0-1.567-13.374,42.147,42.147,0,0,0-7.7-11.982,102.714,102.714,0,0,0-24.782-20.406,107.745,107.745,0,0,0-34.163-13.126c-.746-.148-.832,1.035-.091,1.182Z" transform="translate(-147.162 -84.741)" fill="#fff"/>
    <path id="Path_296" data-name="Path 296" d="M971.086,745.994a15.884,15.884,0,0,0-.364-20.565c-.506-.57-1.416.189-.909.76a14.708,14.708,0,0,1,.3,19.13C969.626,745.907,970.6,746.578,971.086,745.994Z" transform="translate(-147.162 -84.741)" fill="#fff"/>
    <path id="Path_297" data-name="Path 297" d="M986.441,774.665a30.614,30.614,0,0,1-21.531-5.847c-.613-.455-1.286.519-.675.974a31.844,31.844,0,0,0,22.418,6.039c.759-.084.543-1.25-.212-1.166Z" transform="translate(-147.162 -84.741)" fill="#fff"/>
    <path id="Path_298" data-name="Path 298" d="M942.266,727.01a8.991,8.991,0,0,1-7.064,4.785c-.76.075-.543,1.24.212,1.166a10.075,10.075,0,0,0,7.826-5.276.612.612,0,0,0-.15-.824.6.6,0,0,0-.824.15Z" transform="translate(-147.162 -84.741)" fill="#fff"/>
    <path id="Path_299" data-name="Path 299" d="M606.961,257.688h-4V148.143a63.4,63.4,0,0,0-63.4-63.4H307.473a63.4,63.4,0,0,0-63.4,63.4V749.117a63.4,63.4,0,0,0,63.4,63.4H539.56a63.4,63.4,0,0,0,63.4-63.4V335.664h4Z" transform="translate(-147.162 -84.741)" fill="#3f3d56"/>
    <path id="Path_300" data-name="Path 300" d="M542.118,101.236h-30.3A22.495,22.495,0,0,1,491,132.226H358.037a22.495,22.495,0,0,1-20.827-30.991h-28.3a47.348,47.348,0,0,0-47.348,47.348V748.676a47.348,47.348,0,0,0,47.348,47.348h233.2a47.348,47.348,0,0,0,47.348-47.348h0V148.583a47.348,47.348,0,0,0-47.347-47.347Z" transform="translate(-147.162 -84.741)" fill="#fff"/>
    <rect id="Rectangle_110" data-name="Rectangle 110" width="82.66" height="7.676" transform="translate(228.116 177.704)" fill="#b76fff"/>
    <rect id="Rectangle_111" data-name="Rectangle 111" width="144.069" height="7.676" transform="translate(228.116 204.259)" fill="#e6e6e6"/>
    <rect id="Rectangle_112" data-name="Rectangle 112" width="143.928" height="7.676" transform="translate(228.116 230.813)" fill="#e6e6e6"/>
    <rect id="Rectangle_113" data-name="Rectangle 113" width="61.409" height="61.409" transform="translate(149.576 177.818)" fill="#b76fff"/>
    <rect id="Rectangle_114" data-name="Rectangle 114" width="82.66" height="7.676" transform="translate(228.116 338.904)" fill="#b76fff"/>
    <rect id="Rectangle_115" data-name="Rectangle 115" width="144.069" height="7.676" transform="translate(228.116 365.458)" fill="#e6e6e6"/>
    <rect id="Rectangle_116" data-name="Rectangle 116" width="143.928" height="7.676" transform="translate(228.116 392.012)" fill="#e6e6e6"/>
    <rect id="Rectangle_117" data-name="Rectangle 117" width="61.409" height="61.409" transform="translate(149.576 339.018)" fill="#b76fff"/>
    <rect id="Rectangle_118" data-name="Rectangle 118" width="82.66" height="7.676" transform="translate(228.116 500.103)" fill="#b76fff"/>
    <rect id="Rectangle_119" data-name="Rectangle 119" width="144.069" height="7.676" transform="translate(228.116 526.657)" fill="#e6e6e6"/>
    <rect id="Rectangle_120" data-name="Rectangle 120" width="143.928" height="7.676" transform="translate(228.116 553.212)" fill="#e6e6e6"/>
    <rect id="Rectangle_121" data-name="Rectangle 121" width="61.409" height="61.409" transform="translate(149.576 500.217)" fill="#b76fff"/>
    <path id="Path_301" data-name="Path 301" d="M725.531,715.905l-12.241.674-8.426-46.9,18.067-.994Z" fill="#ffb6b6"/>
    <path id="Path_302" data-name="Path 302" d="M876.469,812.339,837,814.513l-.028-.5A15.387,15.387,0,0,1,851.487,797.8h0l24.107-1.327Z" transform="translate(-147.162 -84.741)" fill="#2f2e41"/>
    <path id="Path_303" data-name="Path 303" d="M468.885,527.295,467.3,515.138l46.138-11.9,2.338,17.942Z" fill="#ffb6b6"/>
    <path id="Path_304" data-name="Path 304" d="M604.668,616.672l-5.108-39.2.5-.065A15.387,15.387,0,0,1,617.3,590.677h0l3.12,23.942Z" transform="translate(-147.162 -84.741)" fill="#2f2e41"/>
    <path id="Path_305" data-name="Path 305" d="M770.8,535.2a10.531,10.531,0,0,1,1.563.553l41.954-26.445-.449-12.04,18.081-3.051,2.865,21.237a8,8,0,0,1-4.683,8.382l-51.57,22.891A10.5,10.5,0,1,1,770.8,535.2Z" transform="translate(-147.162 -84.741)" fill="#ffb6b6"/>
    <path id="Path_306" data-name="Path 306" d="M812.4,507.633a4.5,4.5,0,0,1-1.645-3.367l-.559-22.578a12.5,12.5,0,1,1,24.613-4.352l7.109,21.515a4.5,4.5,0,0,1-3.5,5.845l-22.392,3.891a4.5,4.5,0,0,1-3.624-.954Z" transform="translate(-147.162 -84.741)" fill="#e4e4e4"/>
    <circle id="Ellipse_111" data-name="Ellipse 111" cx="30.449" cy="30.449" r="30.449" transform="translate(669.67 299.594)" fill="#2f2e41"/>
    <circle id="Ellipse_112" data-name="Ellipse 112" cx="12.6" cy="12.6" r="12.6" transform="translate(698.172 285.395)" fill="#2f2e41"/>
    <path id="Path_307" data-name="Path 307" d="M874.734,375.911a12.6,12.6,0,0,0-11.287-12.532,12.734,12.734,0,0,1,1.312-.068,12.6,12.6,0,0,1,0,25.2,12.748,12.748,0,0,1-1.312-.068A12.6,12.6,0,0,0,874.734,375.911Z" transform="translate(-147.162 -84.741)" fill="#2f2e41"/>
    <circle id="Ellipse_113" data-name="Ellipse 113" cx="19.254" cy="19.254" r="19.254" transform="translate(680.853 324.642)" fill="#ffb8b8"/>
    <path id="Path_308" data-name="Path 308" d="M879.319,561.5s-.917,22.921-4.584,34.841,2.751,180.621-.458,184.747-18.337,2.751-18.337,2.751l-14.034-87.893s-2.47-93.186-36.394-95.479S639.1,611.009,639.1,611.009l-2.751-18.8,71.056-15.586s65.1-22.463,100.854-16.5S879.319,561.5,879.319,561.5Z" transform="translate(-147.162 -84.741)" fill="#2f2e41"/>
    <path id="Path_309" data-name="Path 309" d="M875.193,450.558c3.667-2.751,12.836.917,12.836.917l10.086,29.8s-5.043,25.672-9.627,39.883-13.416,77.036-11.582,79.787-29.677-19.732-48.472-26.609-22.921-14.67-22.921-14.67,20.629-29.339,13.753-43.092-1.375-29.339-1.375-29.339l-2.751-15.587,15.586-8.71S871.526,453.309,875.193,450.558Z" transform="translate(-147.162 -84.741)" fill="#e4e4e4"/>
    <ellipse id="Ellipse_114" data-name="Ellipse 114" cx="21" cy="12.6" rx="21" ry="12.6" transform="translate(675.578 310.987)" fill="#2f2e41"/>
    <path id="Path_310" data-name="Path 310" d="M964.414,458.576a10.526,10.526,0,0,0-.562,1.559l-47.044,15.7-9.029-7.977L893.96,479.909l14.612,15.674a8,8,0,0,0,9.451,1.689l50.387-25.387a10.5,10.5,0,1,0-4-13.309Z" transform="translate(-147.162 -84.741)" fill="#ffb6b6"/>
    <path id="Path_311" data-name="Path 311" d="M915.166,476.7l-17.2,14.856a4.5,4.5,0,0,1-6.741-.995l-12.138-19.133a12.5,12.5,0,1,1,18.964-16.282l17.112,14.74a4.5,4.5,0,0,1,0,6.814Z" transform="translate(-147.162 -84.741)" fill="#e4e4e4"/>
    <path id="Path_312" data-name="Path 312" d="M1051.65,815.259h-903.3a1.191,1.191,0,1,1,0-2.381h903.294a1.191,1.191,0,0,1,0,2.381Z" transform="translate(-147.162 -84.741)" fill="#3f3d56"/>
  </g>
</svg>
