<svg xmlns="http://www.w3.org/2000/svg" xmlns:xlink="http://www.w3.org/1999/xlink" width="90" height="90" viewBox="0 0 90 90">
  <defs>
    <filter id="Ellipse_62" x="0" y="0" width="90" height="90" filterUnits="userSpaceOnUse">
      <feOffset dy="3" input="SourceAlpha"/>
      <feGaussianBlur stdDeviation="3" result="blur"/>
      <feFlood flood-opacity="0.161"/>
      <feComposite operator="in" in2="blur"/>
      <feComposite in="SourceGraphic"/>
    </filter>
  </defs>
  <g id="delete" transform="translate(-1287 -657)">
    <g transform="matrix(1, 0, 0, 1, 1287, 657)" filter="url(#Ellipse_62)">
      <circle id="Ellipse_62-2" data-name="Ellipse 62" cx="36" cy="36" r="36" transform="translate(9 6)" fill="#fff"/>
    </g>
    <path id="Icon_material-delete-sweep" data-name="Icon material-delete-sweep" d="M32.122,32.882h8.961v4.48H32.122Zm0-17.921H47.8v4.48H32.122Zm0,8.961H45.563V28.4H32.122ZM5.24,37.362a4.493,4.493,0,0,0,4.48,4.48H23.161a4.493,4.493,0,0,0,4.48-4.48v-22.4H5.24ZM29.882,8.24h-6.72L20.921,6H11.961L9.72,8.24H3v4.48H29.882Z" transform="translate(1306.598 675.079)" fill="#b76fff"/>
  </g>
</svg>
