<svg id="Group_124" data-name="Group 124" xmlns="http://www.w3.org/2000/svg" width="836.767" height="628.275" viewBox="0 0 836.767 628.275">
  <path id="Path_179" data-name="Path 179" d="M562.977,751.6q34.1-4.447,65.566-7.561l-8.07-13.53c2.8-.781,14.951,7.051,14.951,7.051l-10.258-39.13C639.185,700,645.7,739.909,645.7,739.909l15.9-13.292-7.831,15.055c64.2-5.608,119.594-7.336,166.159-6.9l-6.907-11.581c2.8-.781,14.951,7.051,14.951,7.051l-10.258-39.129c14.019,1.573,20.538,41.483,20.538,41.483l15.9-13.292-8.294,15.946c39.026,1.087,70.824,3.671,95.354,6.487-6.888-18-30.972-35.309-30.972-35.309,18.523,4.836,28.156,12.7,33.14,19.992a267.3,267.3,0,0,0-20-108.794s37.344,70.444,31.708,117.389l-.717,8.339c32.524,4.268,48.842,8.513,48.842,8.513Z" transform="translate(-176.37 -159.615)" fill="#3f3d56"/>
  <ellipse id="Ellipse_73" data-name="Ellipse 73" cx="418.384" cy="32.541" rx="418.384" ry="32.541" transform="translate(0 563.193)" fill="#3f3d56"/>
  <path id="Path_180" data-name="Path 180" d="M609.673,171.473s9.3,22.081-11.622,32.541,55.785,30.217,63.92,4.649c0,0-20.919-8.135-11.622-32.541Z" transform="translate(-180.83 -96.395)" fill="#ffb9b9"/>
  <path id="Path_181" data-name="Path 181" d="M528.564,618.937,527.4,643.343l19.756,3.486V622.423Z" transform="translate(-74.734 -87.704)" fill="#ffb9b9"/>
  <path id="Path_182" data-name="Path 182" d="M439.027,618.937l1.162,24.406-19.757,3.486V622.423Z" transform="translate(-59.576 -87.704)" fill="#ffb9b9"/>
  <circle id="Ellipse_74" data-name="Ellipse 74" cx="32.541" cy="32.541" r="32.541" transform="translate(418.965 23.361)" fill="#ffb9b9"/>
  <path id="Path_183" data-name="Path 183" d="M578.664,340l-1.163,9.3,5.812,22.081,8.135-19.756Z" transform="translate(-81.833 -48.179)" fill="#ffb9b9"/>
  <path id="Path_184" data-name="Path 184" d="M538.433,427.489,531.46,510s-8.135,15.108-3.487,27.892c0,0-6.973,17.433-4.649,23.244s3.487,11.622,1.162,13.946-3.487,67.406,0,73.217S530.3,668.06,530.3,668.06s19.757,4.649,24.406-8.135,2.324-13.946,6.973-17.433,4.649-52.3,4.649-52.3-5.811-5.811-2.324-8.135,5.811,0,2.324-5.811-9.3-5.811-3.487-8.135a55.416,55.416,0,0,0,9.3-4.649l33.7-88.326s12.784,98.785,15.108,103.434,5.811-1.162,2.324,4.649-4.649,2.324-3.487,5.811-6.973,53.46-2.324,63.92a157.484,157.484,0,0,1,6.973,18.595s18.595,8.135,20.919,2.324S646.516,657.6,650,656.438s6.973-3.487,6.973-12.784,6.973-54.622,6.973-54.622-8.135-3.487-5.811-9.3,2.324-4.649,1.162-9.3-3.487-5.811-1.162-9.3,2.324-13.946,2.324-13.946l13.946-91.812L663.638,424Z" transform="translate(-170.604 -132.179)" fill="#2f2e41"/>
  <path id="Path_185" data-name="Path 185" d="M641.694,724.007s-3.487-3.487-4.649,0-1.162,36.027-1.162,36.027,9.3,6.973,9.3,10.46,6.973,15.108,23.244,12.784q.244-.035.483-.073a15.387,15.387,0,0,0,11.441-21.78l-16.572-35.094S652.153,714.709,641.694,724.007Z" transform="translate(-186.701 -174.179)" fill="#2f2e41"/>
  <path id="Path_186" data-name="Path 186" d="M546.659,724.007s3.487-3.487,4.649,0,1.162,36.027,1.162,36.027-9.3,6.973-9.3,10.46S536.2,785.6,519.928,783.278q-.244-.035-.483-.073A15.387,15.387,0,0,1,508,761.425l16.572-35.094S536.2,714.709,546.659,724.007Z" transform="translate(-168.37 -174.179)" fill="#2f2e41"/>
  <path id="Path_187" data-name="Path 187" d="M607.834,104.655l-5.814-2.328s12.157-13.384,29.071-12.22l-4.757-5.237s11.628-4.655,22.2,7.565c5.557,6.424,11.986,13.974,15.994,22.48h6.226l-2.6,5.722,9.1,5.722-9.336-1.028a31.663,31.663,0,0,1-.883,14.819l.25,4.523S656.46,127.931,656.46,125.6v5.819s-5.814-5.237-5.814-8.728l-3.171,4.073-1.586-6.4-19.556,6.4,3.171-5.237-12.156,1.746,4.757-6.4s-13.742,7.565-14.271,13.966-7.4,14.547-7.4,14.547l-3.171-5.819S592.506,113.384,607.834,104.655Z" transform="translate(-181.13 -84)" fill="#2f2e41"/>
  <path id="Path_188" data-name="Path 188" d="M695.387,233.082h12.948a4.189,4.189,0,0,1,4.089,3.268c2,8.848,7.147,33.927,6.206,53.678-1.162,24.406,1.162,41.838,0,45.325s0,4.649,0,8.135,3.486,1.162,0,5.811-3.487,3.487-3.487,6.973-11.622,56.947-11.622,56.947-7.99-13.132-16.779-10.633l1.671-47.475,2.324-19.757-3.486-34.865Z" transform="translate(-193.908 -105.125)" fill="#3f3d56"/>
  <path id="Path_189" data-name="Path 189" d="M618.077,217.367s-19.757-.718-26.149-9.075c0,0-41.257,13.724-45.906,25.346s16.271,63.92,16.271,63.92S526.265,404.477,543.7,404.477s56.947,13.946,80.19,5.811a298.743,298.743,0,0,1,44.163-11.622s2.324-31.379,0-37.19-8.135-2.324-4.649-10.46,2.324-9.3,1.162-12.784,2.324-8.135,2.324-12.784-1.162-15.108-1.162-15.108,31.379-73.217,24.406-80.19-42.468-20.409-42.468-20.409S637.834,222.015,618.077,217.367Z" transform="translate(-172.963 -101.612)" fill="#3f3d56"/>
  <circle id="Ellipse_75" data-name="Ellipse 75" cx="25.568" cy="25.568" r="25.568" transform="translate(681.036 419.082)" fill="#b76fff"/>
  <ellipse id="Ellipse_76" data-name="Ellipse 76" cx="5.811" cy="12.784" rx="5.811" ry="12.784" transform="translate(683.36 431.866)" fill="#fff"/>
  <circle id="Ellipse_77" data-name="Ellipse 77" cx="25.568" cy="25.568" r="25.568" transform="translate(598.521 255.216)" fill="#696969" opacity="0.67"/>
  <ellipse id="Ellipse_78" data-name="Ellipse 78" cx="12.784" cy="5.811" rx="12.784" ry="5.811" transform="matrix(0.81, -0.587, 0.587, 0.81, 600.098, 269.461)" fill="#fff"/>
  <circle id="Ellipse_79" data-name="Ellipse 79" cx="15.934" cy="15.934" r="15.934" transform="translate(673.237 124.226)" fill="#696969" opacity="0.67"/>
  <ellipse id="Ellipse_80" data-name="Ellipse 80" cx="7.967" cy="3.621" rx="7.967" ry="3.621" transform="matrix(0.81, -0.587, 0.587, 0.81, 674.219, 133.106)" fill="#fff"/>
  <circle id="Ellipse_81" data-name="Ellipse 81" cx="15.934" cy="15.934" r="15.934" transform="translate(553.533 534.475)" fill="#696969" opacity="0.67"/>
  <ellipse id="Ellipse_82" data-name="Ellipse 82" cx="7.967" cy="3.621" rx="7.967" ry="3.621" transform="matrix(0.81, -0.587, 0.587, 0.81, 554.513, 543.353)" fill="#fff"/>
  <circle id="Ellipse_83" data-name="Ellipse 83" cx="25.568" cy="25.568" r="25.568" transform="translate(678.711 302.865)" fill="#696969" opacity="0.67"/>
  <ellipse id="Ellipse_84" data-name="Ellipse 84" cx="5.811" cy="12.784" rx="5.811" ry="12.784" transform="translate(681.035 315.649)" fill="#fff"/>
  <circle id="Ellipse_85" data-name="Ellipse 85" cx="25.568" cy="25.568" r="25.568" transform="translate(596.197 138.998)" fill="#b76fff"/>
  <ellipse id="Ellipse_86" data-name="Ellipse 86" cx="12.784" cy="5.811" rx="12.784" ry="5.811" transform="matrix(0.81, -0.587, 0.587, 0.81, 597.774, 153.244)" fill="#fff"/>
  <circle id="Ellipse_87" data-name="Ellipse 87" cx="15.934" cy="15.934" r="15.934" transform="translate(670.913 8.009)" fill="#b76fff"/>
  <ellipse id="Ellipse_88" data-name="Ellipse 88" cx="7.967" cy="3.621" rx="7.967" ry="3.621" transform="matrix(0.81, -0.587, 0.587, 0.81, 671.895, 16.888)" fill="#fff"/>
  <circle id="Ellipse_89" data-name="Ellipse 89" cx="15.934" cy="15.934" r="15.934" transform="translate(551.208 418.257)" fill="#696969" opacity="0.67"/>
  <ellipse id="Ellipse_90" data-name="Ellipse 90" cx="7.967" cy="3.621" rx="7.967" ry="3.621" transform="matrix(0.81, -0.587, 0.587, 0.81, 552.189, 427.135)" fill="#fff"/>
  <rect id="Rectangle_88" data-name="Rectangle 88" width="321.923" height="195.396" transform="translate(58.109 329.52)" fill="#f2f2f2"/>
  <path id="Path_190" data-name="Path 190" d="M524.336,437.544s-10.46,54.622,6.973,49.974,9.3-49.974,9.3-49.974Z" transform="translate(-170.454 -134.098)" fill="#ffb9b9"/>
  <path id="Path_191" data-name="Path 191" d="M550.11,233.082l-4.128,2.064a11.64,11.64,0,0,0-6.235,8.266L523.38,330.7s-4.649,10.46-4.649,11.622,2.324,1.162,0,4.649-5.811,2.324-3.487,4.649a7.2,7.2,0,0,1,2.324,4.649l2.324,56.947s19.757-5.811,25.568,0c0,0-5.811-17.433-2.324-23.244s3.487-13.946,3.487-13.946-2.324,0,3.487-5.811,6.973-8.135,5.811-9.3S553.6,349.3,553.6,348.138s11.622-79.028,11.622-79.028Z" transform="translate(-169.498 -105.125)" fill="#3f3d56"/>
  <circle id="Ellipse_91" data-name="Ellipse 91" cx="70.471" cy="70.471" r="70.471" transform="translate(152.604 351.942)" fill="#b76fff"/>
  <path id="Path_192" data-name="Path 192" d="M422.472,613.083c-13.53,0-43.409-13.9-69.982-30.172-32.974-20.2-65-46.6-59.4-55.737,1.582-2.583,5.5-3.259,11.993-2.068l-.465,2.533c-5.024-.925-8.425-.6-9.332.879-1.323,2.161,1.595,8.434,13.753,19.559,11.08,10.14,26.989,21.73,44.8,32.637s35.362,19.813,49.428,25.077c15.435,5.777,22.349,5.524,23.672,3.365.909-1.484-.354-4.663-3.464-8.724l2.044-1.566c4.016,5.245,5.2,9.05,3.615,11.634C428.044,612.277,425.732,613.083,422.472,613.083Z" transform="translate(-138.036 -146.425)" fill="#3f3d56"/>
  <circle id="Ellipse_92" data-name="Ellipse 92" cx="14.414" cy="14.414" r="14.414" transform="translate(199.962 371.776)" fill="#fff"/>
  <circle id="Ellipse_93" data-name="Ellipse 93" cx="9.61" cy="9.61" r="9.61" transform="translate(208.941 455.6)" fill="#fff"/>
  <circle id="Ellipse_94" data-name="Ellipse 94" cx="9.61" cy="9.61" r="9.61" transform="translate(242.032 422.656)" fill="#fff"/>
</svg>
