<svg xmlns="http://www.w3.org/2000/svg" width="791.587" height="256" viewBox="0 0 791.587 256">
  <g id="Group_126" data-name="Group 126" transform="translate(-1009 -619)">
    <g id="Group_119" data-name="Group 119" transform="translate(1260 736)">
      <path id="Path_68" data-name="Path 68" d="M282.245,491.981c-.614,4.842-2.759,9.307-5.15,13.6-.118.214-.237.426-.358.64H245.762c-.55-.2-1.091-.41-1.629-.64a28.694,28.694,0,0,1-5.611-3.14c-10.075-7.259-13.954-20.976-12.2-33.267,1.085-7.64,4.439-15.436,10.965-19.549a16.48,16.48,0,0,1,11.836-2.074q.158.029.317.067a12.22,12.22,0,0,1,8.184,5.751c3.111,5.527,1.258,12.373-.272,18.525s-2.352,13.516,2.074,18.054a11.29,11.29,0,0,1,13.129-14.678c.32.067.637.144.951.24a10.47,10.47,0,0,1,2.16.906C280.885,479.336,283,486.05,282.245,491.981Z" transform="translate(-225.912 -387.944)" fill="#f2f2f2"/>
      <path id="Path_69" data-name="Path 69" d="M294.435,506.264c.691.234,1.389.445,2.09.64h-3.031q-.845-.3-1.677-.64c-.122-.048-.246-.1-.368-.15a31.11,31.11,0,0,1-11.97-8.632,24.214,24.214,0,0,1-3.777-6.167,27.937,27.937,0,0,1-1.933-7.893,56.172,56.172,0,0,1,1.111-16.742,69.807,69.807,0,0,1,5.46-16.374q.451-.936.928-1.863a.376.376,0,0,1,.24-.208.421.421,0,0,1,.317.067.5.5,0,0,1,.2.653,69.024,69.024,0,0,0-5.793,15.782,60.587,60.587,0,0,0-1.722,16.428,26.2,26.2,0,0,0,4.615,14.38,28.991,28.991,0,0,0,10.86,8.91A36.471,36.471,0,0,0,294.435,506.264Z" transform="translate(-258.298 -388.624)" fill="#fff"/>
      <path id="Path_70" data-name="Path 70" d="M362.787,565.809h-1.175c-.166-.211-.326-.426-.483-.64a26.008,26.008,0,0,1-4.609-10.591,25.414,25.414,0,0,1,2.189-15.8,26.1,26.1,0,0,1,2.365-3.917c.32.067.637.144.951.24a24.555,24.555,0,0,0,.243,30.069C362.438,565.387,362.611,565.6,362.787,565.809Z" transform="translate(-314.433 -447.53)" fill="#fff"/>
      <path id="Path_71" data-name="Path 71" d="M506.232,387.2a3.438,3.438,0,0,0-3.074-4.284L483.6,358.465l-4.84,4.511,20.663,23.361a3.457,3.457,0,0,0,6.811.867Z" transform="translate(-397.832 -327.591)" fill="#ffb8b8"/>
      <path id="Path_72" data-name="Path 72" d="M477.757,350.622l-6.182,4.734a1.542,1.542,0,0,1-2.285-.476l-3.766-6.788a4.282,4.282,0,0,1,6.814-5.186l5.555,5.386a1.542,1.542,0,0,1-.136,2.331Z" transform="translate(-388.239 -315.863)" fill="#ccc"/>
      <circle id="Ellipse_65" data-name="Ellipse 65" cx="7.861" cy="7.861" r="7.861" transform="translate(71.276 4.274)" fill="#ffb8b8"/>
      <path id="Path_73" data-name="Path 73" d="M294.927,340.9h3.924l-.374-7.344h-5.791Z" transform="translate(-199.011 -226.802)" fill="#ffb8b8"/>
      <path id="Path_74" data-name="Path 74" d="M522.468,614.5H530.2a4.924,4.924,0,0,1,4.925,4.924v.16H522.468Z" transform="translate(-427.552 -501.682)" fill="#2f2e41"/>
      <path id="Path_75" data-name="Path 75" d="M168.975,324.469l3.338,2.062,3.542-6.444-4.04-2.527Z" transform="translate(-114.894 -215.923)" fill="#ffb8b8"/>
      <path id="Path_76" data-name="Path 76" d="M388.649,596.1l6.574,4.061h0a4.924,4.924,0,0,1,1.6,6.778l-.084.136-10.764-6.649Z" transform="translate(-334.746 -489.169)" fill="#2f2e41"/>
      <path id="Path_77" data-name="Path 77" d="M437.211,478.556a1.437,1.437,0,0,1-1.344-.929l-14.193-33.934a.48.48,0,0,0-.848-.1l-19.5,30.716a1.435,1.435,0,0,1-1.8.5l-2.668-1.245a1.446,1.446,0,0,1-.705-1.895l15.975-35.609c-.349-.849-3.751-9.562,1.476-13.867l.037-.023,14.175-6.323.358,10.874L442.3,475.742a1.44,1.44,0,0,1-1.017,1.792l-3.7.974a1.445,1.445,0,0,1-.369.048Z" transform="translate(-341.578 -366.607)" fill="#2f2e41"/>
      <path id="Path_78" data-name="Path 78" d="M459.624,343.651c-.54-2.166-1.3-4.35-2.33-5.358a12.981,12.981,0,0,1-1.061-1.168,7.769,7.769,0,0,0-2.545-2.085c.361-.2.573-.441.573-.7,0-.707-1.576-1.28-3.521-1.28s-3.521.573-3.521,1.28a.625.625,0,0,0,.209.431,7.492,7.492,0,0,0-4.632,6.246c-.455,4.87-.587,11.095,1.006,15.032a14.5,14.5,0,0,1,.3,10.216,1.278,1.278,0,0,0,1.693,1.59l14.065-5.668a1.28,1.28,0,0,0,.8-1.187v-8.609a36.151,36.151,0,0,0-1.038-8.741Z" transform="translate(-373.176 -310.317)" fill="#ccc"/>
      <path id="Path_79" data-name="Path 79" d="M402.875,402.223a3.438,3.438,0,0,0,2.383-4.7L416.263,368.5l-5.581-1.441L400.5,395.78a3.457,3.457,0,0,0,2.372,6.443Z" transform="translate(-343.339 -333.433)" fill="#ffb8b8"/>
      <path id="Path_80" data-name="Path 80" d="M436.746,358.01l-7.052-3.3a1.542,1.542,0,0,1-.632-2.247l4.286-6.472a4.282,4.282,0,1,1,7.745,3.653l-2.216,7.413a1.542,1.542,0,0,1-2.13.954Z" transform="translate(-363.867 -317.438)" fill="#ccc"/>
      <path id="Path_81" data-name="Path 81" d="M444.752,273.855a1.792,1.792,0,0,0,1.031-.186c.58-.379.523-1.242.327-1.907a9.922,9.922,0,0,0-6.834-6.65c-1.119-.3-2.535-.286-3.175.679a8.084,8.084,0,0,0-10.458,1.285,10.952,10.952,0,0,0-2.455,5.231c-.672,3.291-3.548,10.079-1.955,13.036,1.06,1.967,5.94.435,8,1.292a6.818,6.818,0,0,0,6.407-.517,5.228,5.228,0,0,0,2.011-5.894,18.237,18.237,0,0,0-1.247-2.27,3.652,3.652,0,0,1-.541-2.478C436.154,274.161,442.359,273.806,444.752,273.855Z" transform="translate(-358.395 -263.655)" fill="#2f2e41"/>
      <path id="Path_82" data-name="Path 82" d="M378.574,629.88a.319.319,0,0,1-.32.32H226.227a.32.32,0,1,1,0-.64H378.253a.319.319,0,0,1,.32.32Z" transform="translate(-225.907 -511.92)" fill="#3f3d56"/>
      <ellipse id="Ellipse_66" data-name="Ellipse 66" cx="11.202" cy="1.92" rx="11.202" ry="1.92" transform="translate(164.46 115.719)" fill="#b76fff"/>
      <path id="Path_83" data-name="Path 83" d="M881.3,630.64H838.413a.32.32,0,0,1,0-.64H881.3a.32.32,0,0,1,0,.64Z" transform="translate(-642.16 -512.219)" fill="#3f3d56"/>
      <path id="Path_84" data-name="Path 84" d="M735.142,336.881a15.246,15.246,0,0,1,12.041-14.9,15.243,15.243,0,1,0,0,29.808,15.247,15.247,0,0,1-12.043-14.9Z" transform="translate(-567.807 -302.55)" fill="#b76fff"/>
      <path id="Path_85" data-name="Path 85" d="M679.229,296.878a34.078,34.078,0,0,1,29.911-33.82,34.087,34.087,0,0,0-38.232,33.82c0,15.284,22.478,58.386,30.92,74.035a3.582,3.582,0,0,0,6.307,0c.316-.586.654-1.214,1.007-1.874C700.054,352.072,679.229,311.591,679.229,296.878Z" transform="translate(-528.483 -262.547)" fill="#b76fff"/>
      <path id="Path_86" data-name="Path 86" d="M704.393,372.633a3.849,3.849,0,0,1-3.435-2.052C691.65,353.326,670,311.556,670,296.394a34.394,34.394,0,1,1,68.788,0c0,15.164-21.65,56.933-30.959,74.187A3.849,3.849,0,0,1,704.393,372.633Zm0-109.993a33.792,33.792,0,0,0-33.754,33.754c0,15.017,21.6,56.671,30.882,73.883a3.262,3.262,0,0,0,5.744,0c9.285-17.211,30.882-58.865,30.882-73.883A33.792,33.792,0,0,0,704.394,262.64Z" transform="translate(-527.866 -262)" fill="#3f3d56"/>
      <path id="Path_87" data-name="Path 87" d="M744.4,351.961A15.564,15.564,0,1,1,759.961,336.4,15.564,15.564,0,0,1,744.4,351.961Zm0-30.487A14.923,14.923,0,1,0,759.321,336.4,14.923,14.923,0,0,0,744.4,321.474Z" transform="translate(-567.87 -302.004)" fill="#3f3d56"/>
    </g>
    <g id="Group_120" data-name="Group 120" transform="translate(1009 619)">
      <path id="Path_88" data-name="Path 88" d="M545.7,602.258h-2.9l-1.381-11.2H545.7Z" transform="translate(-424.973 -463.939)" fill="#9e616a"/>
      <path id="Path_89" data-name="Path 89" d="M684.268,739.656H674.91v-.118a3.643,3.643,0,0,1,3.642-3.643h5.716Z" transform="translate(-562.798 -598.523)" fill="#2f2e41"/>
      <path id="Path_90" data-name="Path 90" d="M497.271,602.258h-2.9l-1.381-11.2h4.284Z" transform="translate(-386.958 -463.939)" fill="#9e616a"/>
      <path id="Path_91" data-name="Path 91" d="M635.836,739.656h-9.359v-.118a3.643,3.643,0,0,1,3.642-3.643h5.716Z" transform="translate(-524.782 -598.523)" fill="#2f2e41"/>
      <path id="Path_92" data-name="Path 92" d="M507.447,359.79a2.7,2.7,0,0,0,4.127.283l5.743,2.243,2.214-3.158-8.155-3.053a2.713,2.713,0,0,0-3.93,3.685Z" transform="translate(-430.937 -299.918)" fill="#9e616a"/>
      <path id="Path_93" data-name="Path 93" d="M485.137,367.331l-7.561,2.466,2.526,53.551,5.836.144,2.987-37.765.678,37.616,7.216.4,2.66-56.41Z" transform="translate(-374.859 -288.327)" fill="#2f2e41"/>
      <path id="Path_94" data-name="Path 94" d="M633.68,302.356l19.407-4.217,2.158,16.711-1.8,7.984.72,12.134s-15.345,7.638-22.948,1.421c0,0,6.11-16.049,2.568-23.562Z" transform="translate(-528.505 -254.919)" fill="#e4e4e4"/>
      <path id="Path_95" data-name="Path 95" d="M563.258,320.088l-3.361-2.364s-.2-.275-3,3-8.483,8.483-8.483,8.483l-9.47-3.551-1.725,6.374,11.006,5.129,15.582-10.406Z" transform="translate(-454.722 -270.287)" fill="#e4e4e4"/>
      <path id="Path_96" data-name="Path 96" d="M723.745,454.741a2.7,2.7,0,0,0,1.047-4l3.273-5.225-2.69-2.764-4.519,7.443a2.713,2.713,0,0,0,2.889,4.548Z" transform="translate(-598.079 -368.427)" fill="#9e616a"/>
      <path id="Path_97" data-name="Path 97" d="M718.816,301.1l3.027-3.292s3.373-1.175,6.128,4.895,5.833,18.38,5.833,18.38l-7.2,13.861-5.588-2.5,5.588-11.462-5.914-8.488Z" transform="translate(-597.261 -254.586)" fill="#e4e4e4"/>
      <circle id="Ellipse_67" data-name="Ellipse 67" cx="6.3" cy="6.3" r="6.3" transform="translate(104.851 33.816) rotate(-28.663)" fill="#9e616a"/>
      <path id="Path_98" data-name="Path 98" d="M658.462,228.615a4.055,4.055,0,0,0-2.541-2.7,7.234,7.234,0,0,0-3.8-.243,24.113,24.113,0,0,0-6.006,2.163l1.492.714-2.059.118,1.591.823a2.791,2.791,0,0,0-1.034,2.83c.082.341.3.717.651.729.424.014.645-.48.942-.783a1.85,1.85,0,0,1,1.577-.417c.559.076,1.089.291,1.641.41a4.914,4.914,0,0,0,4.018-.931l1.984,4.778a1.176,1.176,0,1,1,2.234.377,8.238,8.238,0,0,0,1.574-4.322,4.144,4.144,0,0,0-2.158-3.844" transform="translate(-539.749 -197.926)" fill="#2f2e41"/>
      <path id="Path_99" data-name="Path 99" d="M317.4,662.272l-2.683,4.219L316.281,661a37.883,37.883,0,0,0-7.869-5.963s-5.626,9.246-4.111,14.933,5.424,6.773,9.594,5.663,7.023-4,5.509-9.683A10.325,10.325,0,0,0,317.4,662.272Z" transform="translate(-271.695 -535.055)" fill="#f2f2f2"/>
      <path id="Path_100" data-name="Path 100" d="M329.413,665.543l.075.28c.851,3.263.978,5.952.376,8.029-.008.03-.018.06-.027.09l-.14-.041-.134-.042c.682-2.252.377-5.1-.364-7.943-.023-.092-.046-.185-.072-.278-.324-1.2-.722-2.4-1.155-3.551-.033-.089-.067-.18-.1-.27-.579-1.516-1.212-2.944-1.8-4.175-.041-.087-.083-.174-.126-.259-1-2.079-1.849-3.552-2.04-3.877l-.039-.067.122-.073v0l.123-.073c0,.005.048.078.126.215.295.51,1.078,1.9,1.981,3.766.04.084.083.171.124.258.477,1,.982,2.121,1.463,3.313q.182.449.348.888c.036.09.07.18.1.27Q328.96,663.869,329.413,665.543Z" transform="translate(-287.257 -533.688)" fill="#fff"/>
      <path id="Path_101" data-name="Path 101" d="M318.1,667.5c-.09.037-.181.075-.274.11a7.943,7.943,0,0,1-.772.249,7.709,7.709,0,0,1-3.413.13l-.117.269a7.993,7.993,0,0,0,3.6-.121,8.216,8.216,0,0,0,.824-.267c.092-.035.183-.073.272-.111a7.926,7.926,0,0,0,2.035-1.26l-.235-.178A7.68,7.68,0,0,1,318.1,667.5Z" transform="translate(-279.14 -543.912)" fill="#fff"/>
      <path id="Path_102" data-name="Path 102" d="M316.528,683.489q-.141.047-.285.085c-.029.009-.059.017-.088.025a7.748,7.748,0,0,1-7-1.574c-.034.1-.067.193-.1.291a8.036,8.036,0,0,0,7.173,1.561l.116-.032c.1-.027.192-.056.286-.085a7.992,7.992,0,0,0,3.731-2.539c-.066-.07-.132-.14-.2-.21A7.694,7.694,0,0,1,316.528,683.489Z" transform="translate(-275.63 -555.443)" fill="#fff"/>
      <path id="Path_103" data-name="Path 103" d="M315.609,696.15c-.095.034-.191.066-.287.1s-.206.062-.31.09a7.769,7.769,0,0,1-8.635-3.485c-.033.129-.065.257-.1.385a8.053,8.053,0,0,0,8.8,3.378c.1-.028.208-.057.309-.09s.193-.06.289-.093a8.03,8.03,0,0,0,4.456-3.863c-.056-.095-.117-.187-.177-.281A7.744,7.744,0,0,1,315.609,696.15Z" transform="translate(-273.453 -564.294)" fill="#fff"/>
      <path id="Path_104" data-name="Path 104" d="M804.774,664.7l-2.644,4.157,1.54-5.412a37.328,37.328,0,0,0-7.754-5.876s-5.544,9.111-4.052,14.716,5.345,6.674,9.455,5.58,6.921-3.938,5.429-9.543A10.172,10.172,0,0,0,804.774,664.7Z" transform="translate(-654.397 -537.045)" fill="#f2f2f2"/>
      <path id="Path_105" data-name="Path 105" d="M816.611,667.925l.074.276a15.266,15.266,0,0,1,.371,7.912c-.008.03-.018.059-.026.089l-.138-.041-.132-.041c.672-2.219.372-5.023-.359-7.828-.023-.091-.046-.183-.071-.274-.32-1.185-.712-2.365-1.138-3.5-.032-.088-.066-.177-.1-.266-.571-1.494-1.194-2.9-1.772-4.114-.04-.086-.082-.171-.124-.256-.986-2.049-1.822-3.5-2.01-3.82-.022-.039-.035-.061-.038-.066l.12-.072v0l.121-.072c0,.005.047.077.124.212.291.5,1.062,1.872,1.952,3.712.04.083.082.169.122.255.47.984.968,2.09,1.442,3.264q.179.442.343.875c.035.089.069.178.1.266Q816.164,666.275,816.611,667.925Z" transform="translate(-669.733 -535.696)" fill="#fff"/>
      <path id="Path_106" data-name="Path 106" d="M805.465,669.851c-.088.037-.178.074-.27.109a7.8,7.8,0,0,1-.761.245,7.6,7.6,0,0,1-3.364.128l-.115.265a7.876,7.876,0,0,0,3.552-.12,8.109,8.109,0,0,0,.812-.263c.09-.034.18-.071.268-.109a7.81,7.81,0,0,0,2.005-1.241l-.231-.176A7.57,7.57,0,0,1,805.465,669.851Z" transform="translate(-661.734 -545.772)" fill="#fff"/>
      <path id="Path_107" data-name="Path 107" d="M803.913,685.61q-.139.046-.281.084c-.028.009-.058.017-.087.025a7.635,7.635,0,0,1-6.9-1.551c-.033.1-.066.19-.1.287a7.919,7.919,0,0,0,7.069,1.538l.115-.032c.1-.027.189-.055.282-.084a7.876,7.876,0,0,0,3.676-2.5c-.065-.069-.13-.138-.2-.207a7.583,7.583,0,0,1-3.581,2.443Z" transform="translate(-658.275 -557.136)" fill="#fff"/>
      <path id="Path_108" data-name="Path 108" d="M803.008,698.087c-.094.034-.188.065-.282.094s-.2.061-.306.089a7.656,7.656,0,0,1-8.51-3.435c-.032.127-.064.253-.094.379a7.936,7.936,0,0,0,8.676,3.329c.1-.027.2-.056.3-.088s.191-.06.285-.092a7.913,7.913,0,0,0,4.391-3.807c-.056-.094-.115-.185-.175-.277A7.63,7.63,0,0,1,803.008,698.087Z" transform="translate(-656.13 -565.858)" fill="#fff"/>
      <path id="Path_109" data-name="Path 109" d="M485.325,144.771c0-9.945-6.933-18.006-15.486-18.006s-15.486,8.062-15.486,18.006c0,9.019,5.7,16.49,13.145,17.8v1.7a1.209,1.209,0,0,0,1.209,1.209h2.264a1.209,1.209,0,0,0,1.209-1.209v-1.7C479.622,161.26,485.325,153.79,485.325,144.771Z" transform="translate(-389.679 -120.403)" fill="#b76fff"/>
      <path id="Path_110" data-name="Path 110" d="M510.319,293.105a4.607,4.607,0,0,1,3.652-1.222,4.329,4.329,0,0,1,3.236,2.11,4.52,4.52,0,0,1,.418,3.774,8.81,8.81,0,0,1-2.159,3.2c-.931.976-1.943,1.876-2.817,2.9a13.691,13.691,0,0,0,1.754,19.495q.417.341.859.649c.341.239.664-.32.326-.557a13.058,13.058,0,0,1-2.168-19.487c.923-1.019,1.956-1.931,2.879-2.95a8.4,8.4,0,0,0,2.035-3.368,5.147,5.147,0,0,0-.528-3.919,5.005,5.005,0,0,0-3.207-2.4,5.309,5.309,0,0,0-3.934.681,5.084,5.084,0,0,0-.8.632c-.3.289.157.745.456.456Z" transform="translate(-432.871 -249.484)" fill="#3f3d56"/>
      <path id="Path_111" data-name="Path 111" d="M189.619,125.484c-4.738-10.892-16.173-16.419-25.541-12.344s-13.12,16.208-8.382,27.1c4.3,9.879,14.1,15.344,22.879,13.235l.809,1.859a1.444,1.444,0,0,0,1.9.748l2.48-1.079a1.444,1.444,0,0,0,.748-1.9l-.809-1.859C191.229,146.262,193.917,135.363,189.619,125.484Z" transform="translate(-153.646 -108.656)" fill="#b76fff"/>
      <path id="Path_112" data-name="Path 112" d="M268.291,299.1a5.52,5.52,0,0,1,3.307-3.035,5.211,5.211,0,0,1,4.37.485,5.467,5.467,0,0,1,2.586,3.691,9.993,9.993,0,0,1-.816,5.22,49.565,49.565,0,0,0-1.88,5.2,16.3,16.3,0,0,0,11.427,19.65c.382.108.767.2,1.155.278.405.082.579-.54.172-.622a15.94,15.94,0,0,1-8.44-4.737,15.565,15.565,0,0,1-4.1-9.41,15.738,15.738,0,0,1,.482-5.291c.49-1.819,1.32-3.521,1.946-5.293a9.9,9.9,0,0,0,.645-5.3,6.087,6.087,0,0,0-2.658-3.821,5.88,5.88,0,0,0-4.46-.843,6.276,6.276,0,0,0-3.814,2.607,5.929,5.929,0,0,0-.549,1.047c-.159.383.465.55.622.172Z" transform="translate(-243.125 -252.573)" fill="#3f3d56"/>
      <path id="Path_113" data-name="Path 113" d="M782.65,640.993h3.478l1.654-13.415h-5.133Z" transform="translate(-614.319 -492.6)" fill="#ffb6b6"/>
      <path id="Path_114" data-name="Path 114" d="M932.173,781.858h6.85a4.365,4.365,0,0,1,4.365,4.365v.142H932.173Z" transform="translate(-764.73 -634.601)" fill="#2f2e41"/>
      <path id="Path_115" data-name="Path 115" d="M686.94,629.522l3.316,1.049,5.624-12.291-4.894-1.548Z" transform="translate(-539.195 -484.087)" fill="#ffb6b6"/>
      <path id="Path_116" data-name="Path 116" d="M833.286,767.11l6.53,2.066h0a4.365,4.365,0,0,1,2.845,5.478l-.043.135-10.692-3.382Z" transform="translate(-686.044 -623.025)" fill="#2f2e41"/>
      <path id="Path_117" data-name="Path 117" d="M849.778,502.275l-1.93,5.443-.055,29.386-5.473,20.12,6.719,1.875,7.422-18.971,2.38-16.663,3.137,16.76-.432,19.921H868.6l.532-30.7a67.3,67.3,0,0,0-4.443-25.243h0Z" transform="translate(-694.202 -415.15)" fill="#2f2e41"/>
      <path id="Path_118" data-name="Path 118" d="M693.833,302.57h11.394l4.761,4.761,1.422,19.68L694.2,329.78,688.674,311l3.01-7.98Z" transform="translate(-540.556 -237.494)" fill="#e4e4e4"/>
      <path id="Path_119" data-name="Path 119" d="M627.922,274.44l-17.543-6.6-.457-2.728,11.064-9.362,3.682,2.762-6.674,7.308,11.877.453Z" transform="translate(-478.742 -200.743)" fill="#e4e4e4"/>
      <circle id="Ellipse_68" data-name="Ellipse 68" cx="2.837" cy="2.837" r="2.837" transform="translate(141.535 53.161)" fill="#ffb6b6"/>
      <path id="Path_120" data-name="Path 120" d="M855.4,330.378l1.282-5.78a7.934,7.934,0,1,1,15.491,3.435l-1.282,5.78a1.067,1.067,0,0,1-1.271.81l-13.411-2.974A1.067,1.067,0,0,1,855.4,330.378Z" transform="translate(-704.448 -270.806)" fill="#2f2e41"/>
      <circle id="Ellipse_69" data-name="Ellipse 69" cx="5.817" cy="5.817" r="5.817" transform="translate(150.957 52.195) rotate(-16.159)" fill="#ffb6b6"/>
      <path id="Path_121" data-name="Path 121" d="M852.36,329.6a6.283,6.283,0,0,1,7.486-4.768l1.156.256a6.283,6.283,0,0,1,4.769,7.486l-.026.116-2.443-.542-.316-2.518-.684,2.3-1.263-.28-.159-1.271-.345,1.159-8.2-1.819Z" transform="translate(-702.063 -275.757)" fill="#2f2e41"/>
      <path id="Path_122" data-name="Path 122" d="M879.433,349.557a1.05,1.05,0,0,1,.16-1.106c1.742-2.059,4.412-5.984,2.724-9.144l-.121-.227,6.61,1.466-2.2,9.924-6.24-.272a1.087,1.087,0,0,1-.188-.025A1.062,1.062,0,0,1,879.433,349.557Z" transform="translate(-723.262 -287.054)" fill="#2f2e41"/>
      <path id="Path_123" data-name="Path 123" d="M763.056,303.124l18.557,2.639,1.038,2.565-8.77,11.538-4.194-1.9,4.93-8.582-11.692,2.134Z" transform="translate(-598.837 -237.929)" fill="#e4e4e4"/>
      <path id="Path_124" data-name="Path 124" d="M911.343,147.891c0-11.878-8.281-21.508-18.5-21.508s-18.5,9.629-18.5,21.508c0,10.773,6.812,19.7,15.7,21.263v2.027a1.444,1.444,0,0,0,1.444,1.444h2.7a1.444,1.444,0,0,0,1.444-1.444v-2.027C904.532,167.587,911.343,158.664,911.343,147.891Z" transform="translate(-719.343 -120.104)" fill="#b76fff"/>
      <path id="Path_125" data-name="Path 125" d="M941.383,325.252a5.563,5.563,0,0,1,4.428-1.475,5.221,5.221,0,0,1,3.849,2.47,5.459,5.459,0,0,1,.588,4.53,10.164,10.164,0,0,1-2.5,3.824c-1.114,1.183-2.334,2.265-3.4,3.494a16.29,16.29,0,0,0,2.021,23.321q.483.393.993.749c.341.238.664-.321.326-.557a15.66,15.66,0,0,1-2.679-23.29c1.095-1.222,2.328-2.311,3.435-3.521a10.234,10.234,0,0,0,2.469-3.991,6.081,6.081,0,0,0-.557-4.65,5.93,5.93,0,0,0-3.763-2.9,6.272,6.272,0,0,0-4.708.781,5.942,5.942,0,0,0-.959.754c-.3.289.157.745.456.456Z" transform="translate(-771.164 -274.512)" fill="#3f3d56"/>
      <circle id="Ellipse_70" data-name="Ellipse 70" cx="2.837" cy="2.837" r="2.837" transform="translate(169.62 79.544)" fill="#ffb6b6"/>
      <path id="Path_126" data-name="Path 126" d="M805.414,349.409a.513.513,0,0,1-.712.054.572.572,0,0,1,0-.83c.615-.739,1.633.041,1.77.775a1.845,1.845,0,0,1-.868,1.837,1.986,1.986,0,0,1-2.217-.29,2.4,2.4,0,0,1,.482-3.869,3.354,3.354,0,0,1,2.9.133,24.154,24.154,0,0,1,2.756,1.723,15.366,15.366,0,0,0,6.637,2.266c.413.042.41-.6,0-.645a14.761,14.761,0,0,1-3.814-.918,16.761,16.761,0,0,1-3.427-1.881,7.617,7.617,0,0,0-3.537-1.578,3.068,3.068,0,0,0-2.828,1.231,3.133,3.133,0,0,0-.471,2.749,2.9,2.9,0,0,0,2.212,1.9,2.372,2.372,0,0,0,2.5-1.155,2.2,2.2,0,0,0-.266-2.693,1.712,1.712,0,0,0-1.664-.453,1.464,1.464,0,0,0-.99,1.26,1.158,1.158,0,0,0,2.091.707c.223-.352-.336-.676-.557-.326Z" transform="translate(-662.52 -292.615)" fill="#3f3d56"/>
      <path id="Path_127" data-name="Path 127" d="M50.086,418.783l-.852,1.069-3.014-1.783L47.072,417Z" transform="translate(-36.279 -327.313)" fill="#e4e4e4"/>
      <path id="Path_128" data-name="Path 128" d="M67.263,446.651l.753,1.123-3.166,1.575-.753-1.123Z" transform="translate(-50.311 -350.587)" fill="#e4e4e4"/>
      <path id="Path_129" data-name="Path 129" d="M93.513,423.945l1.5.053-.15,3.147-1.5-.053Z" transform="translate(-73.283 -332.764)" fill="#e4e4e4"/>
      <path id="Path_130" data-name="Path 130" d="M215.086,22.783l-.852,1.069-3.014-1.783L212.072,21Z" transform="translate(-165.791 -16.483)" fill="#e4e4e4"/>
      <path id="Path_131" data-name="Path 131" d="M232.263,50.651l.753,1.123-3.166,1.575-.753-1.123Z" transform="translate(-179.823 -39.757)" fill="#e4e4e4"/>
      <path id="Path_132" data-name="Path 132" d="M258.513,27.945l1.5.053-.15,3.147-1.5-.053Z" transform="translate(-202.795 -21.935)" fill="#e4e4e4"/>
      <path id="Path_133" data-name="Path 133" d="M604.086,74.783l-.852,1.069-3.014-1.783L601.072,73Z" transform="translate(-471.126 -57.299)" fill="#e4e4e4"/>
      <path id="Path_134" data-name="Path 134" d="M621.263,102.651l.753,1.123-3.166,1.575-.753-1.123Z" transform="translate(-485.158 -80.573)" fill="#e4e4e4"/>
      <path id="Path_135" data-name="Path 135" d="M647.513,79.945l1.5.053-.15,3.147-1.5-.053Z" transform="translate(-508.13 -62.751)" fill="#e4e4e4"/>
      <path id="Path_136" data-name="Path 136" d="M485.086,1.783l-.852,1.069L481.22,1.069,482.072,0Z" transform="translate(-377.72)" fill="#e4e4e4"/>
      <path id="Path_137" data-name="Path 137" d="M502.263,29.651l.753,1.123-3.166,1.575-.753-1.123Z" transform="translate(-391.753 -23.274)" fill="#e4e4e4"/>
      <path id="Path_138" data-name="Path 138" d="M528.513,6.945l1.5.053-.15,3.147-1.5-.053Z" transform="translate(-414.724 -5.451)" fill="#e4e4e4"/>
      <rect id="Rectangle_85" data-name="Rectangle 85" width="1.506" height="3.656" transform="matrix(0.566, -0.824, 0.824, 0.566, 132.534, 83.4)" fill="#e4e4e4"/>
      <rect id="Rectangle_86" data-name="Rectangle 86" width="1.506" height="3.656" transform="translate(137.133 92.693) rotate(-120)" fill="#e4e4e4"/>
      <rect id="Rectangle_87" data-name="Rectangle 87" width="1.506" height="3.656" transform="matrix(-0.999, -0.041, 0.041, -0.999, 144.178, 87.609)" fill="#e4e4e4"/>
      <path id="Path_139" data-name="Path 139" d="M304.7,566.419l2.606-.4L305.515,545.2l-5.807,1.075Z" transform="translate(-235.248 -427.938)" fill="#ffb6b6"/>
      <path id="Path_140" data-name="Path 140" d="M472.842,734.54l5.132-.794h0a3.309,3.309,0,0,1,3.776,2.765l.016.106-8.4,1.3Z" transform="translate(-404.19 -596.806)" fill="#2f2e41"/>
      <path id="Path_141" data-name="Path 141" d="M195.562,575.58l2.634.112,3.2-18.5h-5.807Z" transform="translate(-153.501 -437.356)" fill="#ffb6b6"/>
      <path id="Path_142" data-name="Path 142" d="M345.723,735.725l5.188.221h0a3.309,3.309,0,0,1,3.165,3.447l0,.107-8.494-.362Z" transform="translate(-304.298 -598.39)" fill="#2f2e41"/>
      <path id="Path_143" data-name="Path 143" d="M357.175,350.4a2.154,2.154,0,0,0-.38-.071l1.642-13.442,5.572-11.8a3.243,3.243,0,0,0-5.644-3.165h0a25.588,25.588,0,0,0-3.274,7.226l-2.341,8.465,1.712,14.516a2.15,2.15,0,1,0,2.713-1.727Z" transform="translate(-309.927 -272.435)" fill="#ffb6b6"/>
      <path id="Path_144" data-name="Path 144" d="M363.36,332.857l-7.04-8.054,3.488-8.2a4.474,4.474,0,0,1,8.317,3.294Z" transform="translate(-312.73 -267.269)" fill="#2f2e41"/>
      <circle id="Ellipse_71" data-name="Ellipse 71" cx="6.394" cy="6.394" r="6.394" transform="translate(48.046 39.39) rotate(-61.337)" fill="#ffb6b6"/>
      <path id="Path_145" data-name="Path 145" d="M389.387,232.383h-4.13c-2.708,0-4.9,2.469-4.9,5.516l.191,7.389a32.1,32.1,0,0,1,8.5,2.275l.386-1.646.76,2.168q1.014.492,2.012,1.075a27.212,27.212,0,0,1-.563-10.109h1.4v-1.531l.475,1.531h2.536a6.667,6.667,0,0,0-6.667-6.667Z" transform="translate(-331.594 -203.305)" fill="#2f2e41"/>
      <path id="Path_146" data-name="Path 146" d="M375,380.025l-.6.144-.5-9.341-3.656-27.96-4.194-10.646,2.043-7.42s2.366-5.162-3.549-9.141l-4.732-7.958c-3.268-2.137-5.958-.74-7.391,2.893a22.663,22.663,0,0,0-1.642,11.3c1.292,9.258,2.366,10.324,2.366,10.324s-8.065,8.926-6.345,20.325l-.959,29.514-.877-.036-.1,2.344,7.665.314.1-2.344-.636-.026,2.765-11.7,4.086-15.486,7.1,18.927,2.387,7.577-.786.189.549,2.281,7.458-1.8Z" transform="translate(-303.742 -261.635)" fill="#2f2e41"/>
      <path id="Path_147" data-name="Path 147" d="M416.813,333.115a2.159,2.159,0,0,0-.233.308l-11.292-7.475L397.22,315.69a3.243,3.243,0,0,0-5.354,3.635h0a25.589,25.589,0,0,0,5,6.158l6.527,5.877,13.752,4.954a2.15,2.15,0,1,0-.333-3.2Z" transform="translate(-340.285 -267.722)" fill="#ffb6b6"/>
      <path id="Path_148" data-name="Path 148" d="M402.242,319.619l-10.351,2.7-5.781-6.786a4.474,4.474,0,0,1,6.663-5.969Z" transform="translate(-335.274 -262.783)" fill="#2f2e41"/>
      <path id="Path_149" data-name="Path 149" d="M329.029,752.43H189.811a.256.256,0,1,1,0-.512H329.029a.256.256,0,1,1,0,.512Z" transform="translate(-181.832 -611.1)" fill="#cacaca"/>
    </g>
    <g id="Group_121" data-name="Group 121" transform="translate(1558 619)">
      <path id="Path_150" data-name="Path 150" d="M469.264,625c.878-7.056,5.251-14.009,11.981-16.306a32.762,32.762,0,0,0,0,22.494c1.034,2.8,2.476,5.8,1.5,8.62a7.324,7.324,0,0,1-3.741,3.935,21.751,21.751,0,0,1-5.306,1.631l-.357.3C470.466,639.164,468.386,632.052,469.264,625Z" transform="translate(-382.401 -487.206)" fill="#f0f0f0"/>
      <path id="Path_151" data-name="Path 151" d="M492.779,608.407a28,28,0,0,0-6.961,15.76,12.06,12.06,0,0,0,.137,3.776,6.916,6.916,0,0,0,1.72,3.208,14.32,14.32,0,0,1,2.222,2.659,4.235,4.235,0,0,1,.207,3.457,11,11,0,0,1-2.438,3.637,10.8,10.8,0,0,0-2.708,4.043c-.056.194-.354.1-.3-.1.807-2.784,3.509-4.365,4.8-6.872a4.289,4.289,0,0,0,.29-3.763,11.106,11.106,0,0,0-2.2-2.742,7.38,7.38,0,0,1-1.8-3.074,11.148,11.148,0,0,1-.282-3.757,27.168,27.168,0,0,1,1.984-8.256,28.5,28.5,0,0,1,5.125-8.212c.134-.15.34.086.207.235Z" transform="translate(-393.869 -486.789)" fill="#fff"/>
      <path id="Path_152" data-name="Path 152" d="M480.448,648.971a4.2,4.2,0,0,1-3.2-4.4.157.157,0,0,1,.313.016,3.89,3.89,0,0,0,2.983,4.088C480.743,648.72,480.643,649.017,480.448,648.971Z" transform="translate(-388.416 -513.489)" fill="#fff"/>
      <path id="Path_153" data-name="Path 153" d="M494.157,680.484a8.1,8.1,0,0,0,3.616-4.664c.057-.194.354-.1.3.1a8.423,8.423,0,0,1-3.773,4.845c-.174.1-.314-.177-.141-.28Z" transform="translate(-400.801 -536.502)" fill="#fff"/>
      <path id="Path_154" data-name="Path 154" d="M500.387,628.715a2.378,2.378,0,0,0,2.254-.114c.172-.105.312.175.141.28a2.665,2.665,0,0,1-2.493.132.162.162,0,0,1-.1-.2A.158.158,0,0,1,500.387,628.715Z" transform="translate(-405.291 -501.833)" fill="#fff"/>
      <path id="Path_155" data-name="Path 155" d="M513.243,654.254c-.106.069-.212.138-.317.209a31.321,31.321,0,0,0-4,3.126c-.1.087-.2.177-.291.267a33.018,33.018,0,0,0-7.171,9.816,32.067,32.067,0,0,0-1.756,4.544c-.648,2.15-1.18,4.534-2.463,6.293a5.5,5.5,0,0,1-.429.529H485.218l-.079-.037-.463.021c.019-.082.04-.167.058-.249.011-.048.024-.1.034-.143.008-.032.016-.063.021-.093,0-.011.005-.021.008-.029.005-.029.013-.056.019-.082q.175-.71.36-1.42s0,0,0-.005a47.148,47.148,0,0,1,3.968-10.416c.053-.1.106-.2.164-.3a30.591,30.591,0,0,1,2.748-4.169,27.039,27.039,0,0,1,1.8-2.06,22.491,22.491,0,0,1,5.629-4.216,17.861,17.861,0,0,1,13.416-1.7C513.018,654.182,513.129,654.217,513.243,654.254Z" transform="translate(-393.886 -520.165)" fill="#f0f0f0"/>
      <path id="Path_156" data-name="Path 156" d="M513.366,656.018a28,28,0,0,0-15.047,8.392,12.058,12.058,0,0,0-2.164,3.1,6.916,6.916,0,0,0-.558,3.6,14.316,14.316,0,0,1,.173,3.461,4.235,4.235,0,0,1-1.916,2.885,11,11,0,0,1-4.136,1.436,10.8,10.8,0,0,0-4.6,1.6c-.162.121-.34-.137-.178-.258,2.32-1.737,5.43-1.372,7.968-2.6a4.289,4.289,0,0,0,2.5-2.83,11.106,11.106,0,0,0-.109-3.517,7.38,7.38,0,0,1,.414-3.537,11.15,11.15,0,0,1,2.037-3.169,27.168,27.168,0,0,1,6.555-5.4,28.5,28.5,0,0,1,9.036-3.472c.2-.039.22.274.024.313Z" transform="translate(-394.036 -521.783)" fill="#fff"/>
      <path id="Path_157" data-name="Path 157" d="M537.615,667.818a4.2,4.2,0,0,1,.1-5.439c.134-.151.375.05.241.2a3.891,3.891,0,0,0-.079,5.06C538,667.795,537.743,667.972,537.615,667.818Z" transform="translate(-432.123 -526.654)" fill="#fff"/>
      <path id="Path_158" data-name="Path 158" d="M524.4,707.375a8.1,8.1,0,0,0,5.7-1.547c.162-.12.34.137.178.258a8.423,8.423,0,0,1-5.93,1.6C524.146,707.661,524.2,707.352,524.4,707.375Z" transform="translate(-422.972 -558.627)" fill="#fff"/>
      <path id="Path_159" data-name="Path 159" d="M568.293,663.92a2.378,2.378,0,0,0,1.868,1.266c.2.02.144.328-.056.308a2.665,2.665,0,0,1-2.07-1.4.162.162,0,0,1,.04-.218A.157.157,0,0,1,568.293,663.92Z" transform="translate(-455.178 -527.777)" fill="#fff"/>
      <path id="Path_160" data-name="Path 160" d="M612.421,156.028a1.854,1.854,0,0,0-1.852,1.852v78.293a1.854,1.854,0,0,0,1.852,1.851h114.8a1.854,1.854,0,0,0,1.852-1.851V157.88a1.854,1.854,0,0,0-1.852-1.852Z" transform="translate(-486.48 -154.275)" fill="#e6e6e6"/>
      <path id="Path_161" data-name="Path 161" d="M622.42,166.028a1.854,1.854,0,0,0-1.852,1.852v73a1.854,1.854,0,0,0,1.852,1.852H731.925a1.854,1.854,0,0,0,1.852-1.852v-73a1.854,1.854,0,0,0-1.852-1.852Z" transform="translate(-493.835 -161.629)" fill="#fff"/>
      <path id="Path_162" data-name="Path 162" d="M749.276,225.768c-2.518-.983-5.233,1.483-5.823,4.121s.165,5.367.331,8.065-.541,5.831-2.948,7.061c-2.768,1.414-6.015-.424-9.111-.7a9.168,9.168,0,0,0-8.073,3.658c-2.553,3.5-2.423,8.589-5.445,11.7-2.625,2.7-6.9,3.052-10.576,2.217s-7.048-2.649-10.659-3.719-7.791-1.293-10.885.854c-3.231,2.241-4.668,6.634-8.215,8.331-2.508,1.2-5.476.742-8.159.016s-5.389-1.707-8.16-1.474-5.658,2.145-5.878,4.916l95.079-.265q.648-18.825,1.3-37.649C752.144,230.165,751.818,226.76,749.276,225.768Z" transform="translate(-519.655 -205.406)" fill="#b76fff" opacity="0.1"/>
      <path id="Path_163" data-name="Path 163" d="M471.005,437.9a3.192,3.192,0,0,1,2.393-4.269l1.67-11.219,4.389,3.934L477.2,436.4a3.209,3.209,0,0,1-6.193,1.5Z" transform="translate(-383.679 -350.198)" fill="#ffb6b6"/>
      <path id="Path_164" data-name="Path 164" d="M339.765,442.912a3.192,3.192,0,0,0-1.051-4.78l1.657-11.221-5.342,2.491-.755,10.273a3.209,3.209,0,0,0,5.491,3.236Z" transform="translate(-283.066 -353.508)" fill="#ffb6b6"/>
      <path id="Path_165" data-name="Path 165" d="M303.125,528.758h4.956l2.358-19.117h-7.315Z" transform="translate(-222.946 -374.838)" fill="#ffb6b6"/>
      <path id="Path_166" data-name="Path 166" d="M439.779,725.195h9.761a6.22,6.22,0,0,1,6.22,6.22v.2H439.779Z" transform="translate(-360.865 -572.894)" fill="#2f2e41"/>
      <path id="Path_167" data-name="Path 167" d="M203.125,528.758h4.956l2.358-19.117h-7.315Z" transform="translate(-149.397 -374.838)" fill="#ffb6b6"/>
      <path id="Path_168" data-name="Path 168" d="M339.779,725.195h9.761a6.22,6.22,0,0,1,6.22,6.22v.2H339.779Z" transform="translate(-287.315 -572.894)" fill="#2f2e41"/>
      <circle id="Ellipse_72" data-name="Ellipse 72" cx="8.953" cy="8.953" r="8.953" transform="translate(68.099 5.525)" fill="#ffb6b6"/>
      <path id="Path_169" data-name="Path 169" d="M343.112,445.492s.132,40.063-.508,40.7-2.91,24.6-2.91,24.6h7.935c.529,0,14.027-52.192,14.027-52.192s5.755,28.138,4.8,29.736-.211,22.557.32,24.3c0,0,6.668,2.134,7.307.535s1.587-23.276,1.587-23.276l1.852-35.973.04-9.392Z" transform="translate(-287.253 -366.468)" fill="#2f2e41"/>
      <path id="Path_170" data-name="Path 170" d="M485.019,274.084h3.562a1.153,1.153,0,0,1,1.125.9c.55,2.434,1.966,9.334,1.708,14.768-.32,6.715-.959,17.266-.959,18.226s-3.2,15.668-3.2,15.668-2.2-3.613-4.616-2.926l.46-13.062.64-5.436-.959-9.592Z" transform="translate(-392.39 -241.104)" fill="#e4e4e4"/>
      <path id="Path_171" data-name="Path 171" d="M368.611,251.951s-11.351,3.776-12.63,6.973,4.93,26.378,4.93,26.378-2.381,10.58-5.57,20.625c-1.451,4.571,12.4.658,18.8-1.581,3.963-1.374,11.292.736,15.418-.018,0,0,.639-8.633,0-10.232s-2.238-.64-1.279-2.878.639-2.558.32-3.517.639-2.238.639-3.517-.32-4.157-.32-4.157,8.633-20.144,6.715-22.063-11.684-5.615-11.684-5.615S384.188,252.5,368.611,251.951Z" transform="translate(-298.683 -224.825)" fill="#e4e4e4"/>
      <path id="Path_172" data-name="Path 172" d="M342.794,274.084l-1.136.568a3.2,3.2,0,0,0-1.715,2.274l-4.5,24.017-.959,22.7s5.436-1.6,7.034,0c0,0-1.6-4.8-.639-6.395a8.634,8.634,0,0,0,.959-3.837s-.639,0,.959-1.6,1.918-2.238,1.6-2.558a13.6,13.6,0,0,1-.639-3.517c0-.32,3.2-21.743,3.2-21.743Z" transform="translate(-283.418 -241.104)" fill="#e4e4e4"/>
      <path id="Path_173" data-name="Path 173" d="M652.484,266.774a.529.529,0,0,1,0-1.058c24.444,0,47.756-4.894,65.642-13.782,16.771-8.334,27.459-19.635,29.322-31.005a.529.529,0,0,1,1.044.17h0c-.968,5.907-4.109,11.7-9.336,17.221-5.155,5.445-12.072,10.344-20.559,14.561C700.568,261.84,677.089,266.774,652.484,266.774Z" transform="translate(-516.919 -201.682)" fill="#b76fff"/>
      <path id="Path_174" data-name="Path 174" d="M611.179,107.684H510.138V57.765h.529v49.39H611.179Z" transform="translate(-375.204 -42.486)" fill="#e6e6e6"/>
      <path id="Path_175" data-name="Path 175" d="M394.892,166.893a4.919,4.919,0,0,1-.187-3.162c.731,1.94,2.184,1.348,2.925.438.928-1.141.661-3.775,2.127-3.893a16.429,16.429,0,0,1,4.376.436l-.718-1.229,3.135.195-.933-1.536a10.718,10.718,0,0,1,6.347,6.007,6.874,6.874,0,0,0-3.611-10.112l1.237-1.622-8.39-.828a2.491,2.491,0,0,1,.976-2.109,4.2,4.2,0,0,0-3.2.754,12.454,12.454,0,0,0-2.406,2.357,19.2,19.2,0,0,0-2.948,4.162A9.8,9.8,0,0,0,394.892,166.893Zm.1-3.94H395Z" transform="translate(-326.278 -149.399)" fill="#2f2e41"/>
      <path id="Path_176" data-name="Path 176" d="M312.959,748.849H141.746a.315.315,0,0,1,0-.63H312.959a.315.315,0,0,1,0,.63Z" transform="translate(-141.431 -589.829)" fill="#cacaca"/>
    </g>
    <text id="Posts" transform="translate(1363 697)" fill="#c694f9" font-size="50" font-family="ZenLoop-Regular, Zen Loop"><tspan x="0" y="0">Posts</tspan></text>
    <text id="Events" transform="translate(1064 861)" fill="#c694f9" font-size="50" font-family="ZenLoop-Regular, Zen Loop"><tspan x="0" y="0">Events</tspan></text>
    <text id="Promotions" transform="translate(1609 861)" fill="#c694f9" font-size="50" font-family="ZenLoop-Regular, Zen Loop"><tspan x="0" y="0">Promotions</tspan></text>
    <path id="Path_177" data-name="Path 177" d="M-3310.384,767.5s88.39,14.082,89.879-79.73S-3143,604.4-3143,604.4" transform="translate(4475 79)" fill="none" stroke="#707070" stroke-width="1"/>
    <path id="Path_178" data-name="Path 178" d="M-3005.25,604.058s67.719-7.51,65.78,76.549,61.224,83.04,61.224,83.04" transform="translate(4475 79)" fill="none" stroke="#707070" stroke-width="1"/>
  </g>
</svg>
