<svg xmlns="http://www.w3.org/2000/svg" xmlns:xlink="http://www.w3.org/1999/xlink" width="90" height="90" viewBox="0 0 90 90">
  <defs>
    <filter id="Ellipse_63" x="0" y="0" width="90" height="90" filterUnits="userSpaceOnUse">
      <feOffset dy="3" input="SourceAlpha"/>
      <feGaussianBlur stdDeviation="3" result="blur"/>
      <feFlood flood-opacity="0.161"/>
      <feComposite operator="in" in2="blur"/>
      <feComposite in="SourceGraphic"/>
    </filter>
  </defs>
  <g id="Update" transform="translate(-1200 -657)">
    <g transform="matrix(1, 0, 0, 1, 1200, 657)" filter="url(#Ellipse_63)">
      <circle id="Ellipse_63-2" data-name="Ellipse 63" cx="36" cy="36" r="36" transform="translate(9 6)" fill="#fff"/>
    </g>
    <path id="Icon_material-system-update-alt" data-name="Icon material-system-update-alt" d="M23.4,31.136l7.965-7.965H25.4V5.25H21.413V23.171H15.439ZM41.325,5.25H29.378V9.213H41.325V37.15H5.483V9.213H17.43V5.25H5.483A3.994,3.994,0,0,0,1.5,9.233V37.11a3.994,3.994,0,0,0,3.983,3.983H41.325a3.994,3.994,0,0,0,3.983-3.983V9.233A3.994,3.994,0,0,0,41.325,5.25Z" transform="translate(1268.404 722.171) rotate(180)" fill="#b76fff"/>
  </g>
</svg>
