<svg xmlns="http://www.w3.org/2000/svg" xmlns:xlink="http://www.w3.org/1999/xlink" width="85" height="86" viewBox="0 0 85 86">
  <defs>
    <filter id="Rectangle_48" x="0" y="0" width="85" height="86" filterUnits="userSpaceOnUse">
      <feOffset dy="3" input="SourceAlpha"/>
      <feGaussianBlur stdDeviation="3" result="blur"/>
      <feFlood flood-opacity="0.161"/>
      <feComposite operator="in" in2="blur"/>
      <feComposite in="SourceGraphic"/>
    </filter>
  </defs>
  <g id="Image" transform="translate(9 5.741)">
    <g id="Group_79" data-name="Group 79" transform="translate(0 0)">
      <g transform="matrix(1, 0, 0, 1, -9, -5.74)" filter="url(#Rectangle_48)">
        <rect id="Rectangle_48-2" data-name="Rectangle 48" width="67" height="68" rx="33.5" transform="translate(9 6)" fill="#fff"/>
      </g>
    </g>
    <g id="Icon_ionic-ios-images" data-name="Icon ionic-ios-images" transform="translate(12.992 13.328)">
      <path id="Path_5" data-name="Path 5" d="M20.633,14.058a.436.436,0,0,0-.709-.064l-8.46,11.249a.431.431,0,0,0,.295.709l14.83,1.289A.438.438,0,0,0,27,26.586Z" transform="translate(0.568 1.336)" fill="#b76fff"/>
      <path id="Path_6" data-name="Path 6" d="M26.55,18.621a.436.436,0,0,0-.709-.064l-2.283,2.311a.431.431,0,0,0-.046.5l2.338,4.557a.429.429,0,0,0,.341.212l4.133.359a.438.438,0,0,0,.414-.654Z" transform="translate(4.307 2.747)" fill="#b76fff"/>
      <path id="Path_7" data-name="Path 7" d="M27.11,16.807a2.177,2.177,0,1,0-2.182-2.587A2.194,2.194,0,0,0,27.11,16.807Z" transform="translate(4.751 0.907)" fill="#b76fff"/>
      <path id="Path_8" data-name="Path 8" d="M41.208,11.207l-6.057-.525-.562-6.168A2.487,2.487,0,0,0,31.874,2.26L4.524,4.727A2.5,2.5,0,0,0,2.259,7.433L4.726,34.728a2.487,2.487,0,0,0,2.716,2.255l1.445-.129-.138,1.537a2.489,2.489,0,0,0,2.274,2.7l27.368,2.384A2.5,2.5,0,0,0,41.1,41.208l2.393-27.3A2.508,2.508,0,0,0,41.208,11.207ZM7.368,26.986a.634.634,0,0,1-.681-.562L5.03,8.013a.62.62,0,0,1,.562-.672l25.7-2.311a.634.634,0,0,1,.681.562l.442,4.861L13.849,8.823a2.5,2.5,0,0,0-2.706,2.265L9.771,26.765ZM40.711,14.5,39.1,32.914a.627.627,0,0,1-.672.571l-1.712-.147-24-2.09a.627.627,0,0,1-.571-.672l.35-4.041,1.261-14.37a.627.627,0,0,1,.672-.571l18.227,1.593,2.734.239,4.75.414A.6.6,0,0,1,40.711,14.5Z" transform="translate(-2.25 -2.249)" fill="#b76fff"/>
    </g>
  </g>
</svg>
